<?xml version="1.0" encoding="UTF-8" standalone="no"?>
<!-- Created with Sodipodi ("http://www.sodipodi.com/") -->

<svg
   xml:space="preserve"
   width="280pt"
   height="188pt"
   style="shape-rendering:geometricPrecision; text-rendering:geometricPrecision; image-rendering:optimizeQuality; fill-rule:evenodd"
   viewBox="0 0 8268 11692"
   id="svg668"
   sodipodi:version="0.34"
   sodipodi:docname="Aquarius.svg"
   version="1.1"
   inkscape:version="1.1 (c4e8f9ed74, 2021-05-24)"
   xmlns:inkscape="http://www.inkscape.org/namespaces/inkscape"
   xmlns:sodipodi="http://sodipodi.sourceforge.net/DTD/sodipodi-0.dtd"
   xmlns="http://www.w3.org/2000/svg"
   xmlns:svg="http://www.w3.org/2000/svg"><sodipodi:namedview
     id="base"
     pagecolor="#ffffff"
     bordercolor="#cccccc"
     borderopacity="1"
     inkscape:pageshadow="0"
     inkscape:pageopacity="1"
     inkscape:pagecheckerboard="0"
     inkscape:document-units="pt"
     showgrid="false"
     inkscape:zoom="1.6915179"
     inkscape:cx="135.08577"
     inkscape:cy="158.14199"
     inkscape:window-width="1920"
     inkscape:window-height="1006"
     inkscape:window-x="0"
     inkscape:window-y="38"
     inkscape:window-maximized="1"
     inkscape:current-layer="svg668" /><defs
     id="defs669"><style
       type="text/css"
       id="style670"><![CDATA[
    .fil0 {fill:#000000}
   ]]></style></defs><g
     id="Layer 1"
     transform="matrix(6.99342,0,0,6.984468,-23594.91,-32470.79)"
     style="fill:#cfcfcf;fill-opacity:1"><path
       class="fil0"
       d="M2720 6184l753 -497 165 385 583 -385 163 385 584 -385 241 567 -156 69 -161 -385 -586 385 -163 -385 -581 385 -164 -385 -586 385 -92 -139zm1 -1037l753 -498 165 385 584 -385 163 385 583 -385 241 567 -156 69 -161 -385 -587 385 -163 -385 -581 385 -162 -385 -586 385 -93 -138z"
       id="path672"
       style="fill:#cfcfcf;fill-opacity:1" /></g></svg>
