<?xml version="1.0" encoding="UTF-8" standalone="no"?>
<svg
   width="197pt"
   height="188pt"
   viewBox="0 0 8268 11692"
   version="1.1"
   id="svg956"
   sodipodi:docname="Capricorn.svg"
   inkscape:version="1.1 (c4e8f9ed74, 2021-05-24)"
   xmlns:inkscape="http://www.inkscape.org/namespaces/inkscape"
   xmlns:sodipodi="http://sodipodi.sourceforge.net/DTD/sodipodi-0.dtd"
   xmlns="http://www.w3.org/2000/svg"
   xmlns:svg="http://www.w3.org/2000/svg">
  <defs
     id="defs960" />
  <sodipodi:namedview
     id="namedview958"
     pagecolor="#ffffff"
     bordercolor="#cccccc"
     borderopacity="1"
     inkscape:pageshadow="0"
     inkscape:pageopacity="1"
     inkscape:pagecheckerboard="0"
     inkscape:document-units="pt"
     showgrid="false"
     inkscape:zoom="3.4029255"
     inkscape:cx="131.21063"
     inkscape:cy="125.33333"
     inkscape:window-width="1920"
     inkscape:window-height="1006"
     inkscape:window-x="0"
     inkscape:window-y="38"
     inkscape:window-maximized="1"
     inkscape:current-layer="svg956" />
  <g
     transform="matrix(4.75426,0,0,4.752845,-14923.45,-21059.85)"
     id="g954"
     style="fill:#cfcfcf;fill-opacity:1">
    <path
       d="M3212 5895l0 -70c0,-131 -23,-314 -68,-552 -46,-238 -88,-394 -127,-468 -55,-105 -141,-158 -259,-158l-38 0 0 -165 150 0c141,0 238,55 292,165 64,133 122,353 175,661 76,-340 202,-615 380,-826l265 -51c65,147 119,368 162,663l37 245c12,86 20,147 24,183 16,147 37,258 61,333 129,-247 308,-371 536,-371 137,0 254,48 350,142 97,94 145,209 145,344 0,144 -49,268 -146,368 -98,101 -217,151 -357,151 -191,0 -358,-74 -501,-222 -102,268 -192,439 -270,513 -78,74 -206,111 -384,111l-182 0 0 -167 85 0c172,0 290,-35 355,-105 64,-69 147,-251 247,-546 -45,-79 -75,-146 -89,-199 -14,-53 -32,-169 -54,-349l-51 -384c-33,-253 -72,-427 -117,-522 -114,135 -213,318 -296,549 -84,231 -125,437 -125,619l0 108 -200 0zm1126 202c145,161 293,242 441,242 100,0 184,-35 251,-105 67,-69 100,-157 100,-261 0,-93 -32,-173 -96,-239 -63,-65 -141,-98 -232,-98 -197,0 -352,154 -464,461z"
       id="path952"
       style="fill:#cfcfcf;fill-opacity:1" />
  </g>
</svg>
