<?xml version="1.0" standalone="no"?>
<!DOCTYPE svg PUBLIC "-//W3C//DTD SVG 1.1//EN" "http://www.w3.org/Graphics/SVG/1.1/DTD/svg11.dtd">

<svg width="975" height="975" 
  xmlns="http://www.w3.org/2000/svg"
  xmlns:xlink="http://www.w3.org/1999/xlink">


<rect x="0" y="0" width="975" height="975" fill="#151414"/>
<circle cx="487.5" cy="487.5" r="442.5" stroke="#CC6D51" fill="none" stroke-width="2px"/>
<circle cx="487.5" cy="487.5" r="402.5" stroke="#CC6D51" fill="none" stroke-width="2px"/>
<circle cx="487.5" cy="487.5" r="362.5" stroke="#CC6D51" fill="none" stroke-width="2px"/>
<circle cx="487.5" cy="487.5" r="322.5" stroke="#CC6D51" fill="none" stroke-width="2px"/>
<rect x="0" y="0" width="4" height="2" fill="#CC6D51" transform="rotate(0, 487.5, 487.5) translate(806.0, 487.5)"/>
<rect x="0" y="0" width="4" height="2" fill="#CC6D51" transform="rotate(2, 487.5, 487.5) translate(806.0, 487.5)"/>
<rect x="0" y="0" width="4" height="2" fill="#CC6D51" transform="rotate(4, 487.5, 487.5) translate(806.0, 487.5)"/>
<rect x="0" y="0" width="4" height="2" fill="#CC6D51" transform="rotate(6, 487.5, 487.5) translate(806.0, 487.5)"/>
<rect x="0" y="0" width="4" height="2" fill="#CC6D51" transform="rotate(8, 487.5, 487.5) translate(806.0, 487.5)"/>
<rect x="0" y="0" width="4" height="2" fill="#CC6D51" transform="rotate(10, 487.5, 487.5) translate(806.0, 487.5)"/>
<rect x="0" y="0" width="4" height="2" fill="#CC6D51" transform="rotate(12, 487.5, 487.5) translate(806.0, 487.5)"/>
<rect x="0" y="0" width="4" height="2" fill="#CC6D51" transform="rotate(14, 487.5, 487.5) translate(806.0, 487.5)"/>
<rect x="0" y="0" width="4" height="2" fill="#CC6D51" transform="rotate(16, 487.5, 487.5) translate(806.0, 487.5)"/>
<rect x="0" y="0" width="4" height="2" fill="#CC6D51" transform="rotate(18, 487.5, 487.5) translate(806.0, 487.5)"/>
<rect x="0" y="0" width="4" height="2" fill="#CC6D51" transform="rotate(20, 487.5, 487.5) translate(806.0, 487.5)"/>
<rect x="0" y="0" width="4" height="2" fill="#CC6D51" transform="rotate(22, 487.5, 487.5) translate(806.0, 487.5)"/>
<rect x="0" y="0" width="4" height="2" fill="#CC6D51" transform="rotate(24, 487.5, 487.5) translate(806.0, 487.5)"/>
<rect x="0" y="0" width="4" height="2" fill="#CC6D51" transform="rotate(26, 487.5, 487.5) translate(806.0, 487.5)"/>
<rect x="0" y="0" width="4" height="2" fill="#CC6D51" transform="rotate(28, 487.5, 487.5) translate(806.0, 487.5)"/>
<rect x="0" y="0" width="4" height="2" fill="#CC6D51" transform="rotate(30, 487.5, 487.5) translate(806.0, 487.5)"/>
<rect x="0" y="0" width="4" height="2" fill="#CC6D51" transform="rotate(32, 487.5, 487.5) translate(806.0, 487.5)"/>
<rect x="0" y="0" width="4" height="2" fill="#CC6D51" transform="rotate(34, 487.5, 487.5) translate(806.0, 487.5)"/>
<rect x="0" y="0" width="4" height="2" fill="#CC6D51" transform="rotate(36, 487.5, 487.5) translate(806.0, 487.5)"/>
<rect x="0" y="0" width="4" height="2" fill="#CC6D51" transform="rotate(38, 487.5, 487.5) translate(806.0, 487.5)"/>
<rect x="0" y="0" width="4" height="2" fill="#CC6D51" transform="rotate(40, 487.5, 487.5) translate(806.0, 487.5)"/>
<rect x="0" y="0" width="4" height="2" fill="#CC6D51" transform="rotate(42, 487.5, 487.5) translate(806.0, 487.5)"/>
<rect x="0" y="0" width="4" height="2" fill="#CC6D51" transform="rotate(44, 487.5, 487.5) translate(806.0, 487.5)"/>
<rect x="0" y="0" width="4" height="2" fill="#CC6D51" transform="rotate(46, 487.5, 487.5) translate(806.0, 487.5)"/>
<rect x="0" y="0" width="4" height="2" fill="#CC6D51" transform="rotate(48, 487.5, 487.5) translate(806.0, 487.5)"/>
<rect x="0" y="0" width="4" height="2" fill="#CC6D51" transform="rotate(50, 487.5, 487.5) translate(806.0, 487.5)"/>
<rect x="0" y="0" width="4" height="2" fill="#CC6D51" transform="rotate(52, 487.5, 487.5) translate(806.0, 487.5)"/>
<rect x="0" y="0" width="4" height="2" fill="#CC6D51" transform="rotate(54, 487.5, 487.5) translate(806.0, 487.5)"/>
<rect x="0" y="0" width="4" height="2" fill="#CC6D51" transform="rotate(56, 487.5, 487.5) translate(806.0, 487.5)"/>
<rect x="0" y="0" width="4" height="2" fill="#CC6D51" transform="rotate(58, 487.5, 487.5) translate(806.0, 487.5)"/>
<rect x="0" y="0" width="4" height="2" fill="#CC6D51" transform="rotate(60, 487.5, 487.5) translate(806.0, 487.5)"/>
<rect x="0" y="0" width="4" height="2" fill="#CC6D51" transform="rotate(62, 487.5, 487.5) translate(806.0, 487.5)"/>
<rect x="0" y="0" width="4" height="2" fill="#CC6D51" transform="rotate(64, 487.5, 487.5) translate(806.0, 487.5)"/>
<rect x="0" y="0" width="4" height="2" fill="#CC6D51" transform="rotate(66, 487.5, 487.5) translate(806.0, 487.5)"/>
<rect x="0" y="0" width="4" height="2" fill="#CC6D51" transform="rotate(68, 487.5, 487.5) translate(806.0, 487.5)"/>
<rect x="0" y="0" width="4" height="2" fill="#CC6D51" transform="rotate(70, 487.5, 487.5) translate(806.0, 487.5)"/>
<rect x="0" y="0" width="4" height="2" fill="#CC6D51" transform="rotate(72, 487.5, 487.5) translate(806.0, 487.5)"/>
<rect x="0" y="0" width="4" height="2" fill="#CC6D51" transform="rotate(74, 487.5, 487.5) translate(806.0, 487.5)"/>
<rect x="0" y="0" width="4" height="2" fill="#CC6D51" transform="rotate(76, 487.5, 487.5) translate(806.0, 487.5)"/>
<rect x="0" y="0" width="4" height="2" fill="#CC6D51" transform="rotate(78, 487.5, 487.5) translate(806.0, 487.5)"/>
<rect x="0" y="0" width="4" height="2" fill="#CC6D51" transform="rotate(80, 487.5, 487.5) translate(806.0, 487.5)"/>
<rect x="0" y="0" width="4" height="2" fill="#CC6D51" transform="rotate(82, 487.5, 487.5) translate(806.0, 487.5)"/>
<rect x="0" y="0" width="4" height="2" fill="#CC6D51" transform="rotate(84, 487.5, 487.5) translate(806.0, 487.5)"/>
<rect x="0" y="0" width="4" height="2" fill="#CC6D51" transform="rotate(86, 487.5, 487.5) translate(806.0, 487.5)"/>
<rect x="0" y="0" width="4" height="2" fill="#CC6D51" transform="rotate(88, 487.5, 487.5) translate(806.0, 487.5)"/>
<rect x="0" y="0" width="4" height="2" fill="#CC6D51" transform="rotate(90, 487.5, 487.5) translate(806.0, 487.5)"/>
<rect x="0" y="0" width="4" height="2" fill="#CC6D51" transform="rotate(92, 487.5, 487.5) translate(806.0, 487.5)"/>
<rect x="0" y="0" width="4" height="2" fill="#CC6D51" transform="rotate(94, 487.5, 487.5) translate(806.0, 487.5)"/>
<rect x="0" y="0" width="4" height="2" fill="#CC6D51" transform="rotate(96, 487.5, 487.5) translate(806.0, 487.5)"/>
<rect x="0" y="0" width="4" height="2" fill="#CC6D51" transform="rotate(98, 487.5, 487.5) translate(806.0, 487.5)"/>
<rect x="0" y="0" width="4" height="2" fill="#CC6D51" transform="rotate(100, 487.5, 487.5) translate(806.0, 487.5)"/>
<rect x="0" y="0" width="4" height="2" fill="#CC6D51" transform="rotate(102, 487.5, 487.5) translate(806.0, 487.5)"/>
<rect x="0" y="0" width="4" height="2" fill="#CC6D51" transform="rotate(104, 487.5, 487.5) translate(806.0, 487.5)"/>
<rect x="0" y="0" width="4" height="2" fill="#CC6D51" transform="rotate(106, 487.5, 487.5) translate(806.0, 487.5)"/>
<rect x="0" y="0" width="4" height="2" fill="#CC6D51" transform="rotate(108, 487.5, 487.5) translate(806.0, 487.5)"/>
<rect x="0" y="0" width="4" height="2" fill="#CC6D51" transform="rotate(110, 487.5, 487.5) translate(806.0, 487.5)"/>
<rect x="0" y="0" width="4" height="2" fill="#CC6D51" transform="rotate(112, 487.5, 487.5) translate(806.0, 487.5)"/>
<rect x="0" y="0" width="4" height="2" fill="#CC6D51" transform="rotate(114, 487.5, 487.5) translate(806.0, 487.5)"/>
<rect x="0" y="0" width="4" height="2" fill="#CC6D51" transform="rotate(116, 487.5, 487.5) translate(806.0, 487.5)"/>
<rect x="0" y="0" width="4" height="2" fill="#CC6D51" transform="rotate(118, 487.5, 487.5) translate(806.0, 487.5)"/>
<rect x="0" y="0" width="4" height="2" fill="#CC6D51" transform="rotate(120, 487.5, 487.5) translate(806.0, 487.5)"/>
<rect x="0" y="0" width="4" height="2" fill="#CC6D51" transform="rotate(122, 487.5, 487.5) translate(806.0, 487.5)"/>
<rect x="0" y="0" width="4" height="2" fill="#CC6D51" transform="rotate(124, 487.5, 487.5) translate(806.0, 487.5)"/>
<rect x="0" y="0" width="4" height="2" fill="#CC6D51" transform="rotate(126, 487.5, 487.5) translate(806.0, 487.5)"/>
<rect x="0" y="0" width="4" height="2" fill="#CC6D51" transform="rotate(128, 487.5, 487.5) translate(806.0, 487.5)"/>
<rect x="0" y="0" width="4" height="2" fill="#CC6D51" transform="rotate(130, 487.5, 487.5) translate(806.0, 487.5)"/>
<rect x="0" y="0" width="4" height="2" fill="#CC6D51" transform="rotate(132, 487.5, 487.5) translate(806.0, 487.5)"/>
<rect x="0" y="0" width="4" height="2" fill="#CC6D51" transform="rotate(134, 487.5, 487.5) translate(806.0, 487.5)"/>
<rect x="0" y="0" width="4" height="2" fill="#CC6D51" transform="rotate(136, 487.5, 487.5) translate(806.0, 487.5)"/>
<rect x="0" y="0" width="4" height="2" fill="#CC6D51" transform="rotate(138, 487.5, 487.5) translate(806.0, 487.5)"/>
<rect x="0" y="0" width="4" height="2" fill="#CC6D51" transform="rotate(140, 487.5, 487.5) translate(806.0, 487.5)"/>
<rect x="0" y="0" width="4" height="2" fill="#CC6D51" transform="rotate(142, 487.5, 487.5) translate(806.0, 487.5)"/>
<rect x="0" y="0" width="4" height="2" fill="#CC6D51" transform="rotate(144, 487.5, 487.5) translate(806.0, 487.5)"/>
<rect x="0" y="0" width="4" height="2" fill="#CC6D51" transform="rotate(146, 487.5, 487.5) translate(806.0, 487.5)"/>
<rect x="0" y="0" width="4" height="2" fill="#CC6D51" transform="rotate(148, 487.5, 487.5) translate(806.0, 487.5)"/>
<rect x="0" y="0" width="4" height="2" fill="#CC6D51" transform="rotate(150, 487.5, 487.5) translate(806.0, 487.5)"/>
<rect x="0" y="0" width="4" height="2" fill="#CC6D51" transform="rotate(152, 487.5, 487.5) translate(806.0, 487.5)"/>
<rect x="0" y="0" width="4" height="2" fill="#CC6D51" transform="rotate(154, 487.5, 487.5) translate(806.0, 487.5)"/>
<rect x="0" y="0" width="4" height="2" fill="#CC6D51" transform="rotate(156, 487.5, 487.5) translate(806.0, 487.5)"/>
<rect x="0" y="0" width="4" height="2" fill="#CC6D51" transform="rotate(158, 487.5, 487.5) translate(806.0, 487.5)"/>
<rect x="0" y="0" width="4" height="2" fill="#CC6D51" transform="rotate(160, 487.5, 487.5) translate(806.0, 487.5)"/>
<rect x="0" y="0" width="4" height="2" fill="#CC6D51" transform="rotate(162, 487.5, 487.5) translate(806.0, 487.5)"/>
<rect x="0" y="0" width="4" height="2" fill="#CC6D51" transform="rotate(164, 487.5, 487.5) translate(806.0, 487.5)"/>
<rect x="0" y="0" width="4" height="2" fill="#CC6D51" transform="rotate(166, 487.5, 487.5) translate(806.0, 487.5)"/>
<rect x="0" y="0" width="4" height="2" fill="#CC6D51" transform="rotate(168, 487.5, 487.5) translate(806.0, 487.5)"/>
<rect x="0" y="0" width="4" height="2" fill="#CC6D51" transform="rotate(170, 487.5, 487.5) translate(806.0, 487.5)"/>
<rect x="0" y="0" width="4" height="2" fill="#CC6D51" transform="rotate(172, 487.5, 487.5) translate(806.0, 487.5)"/>
<rect x="0" y="0" width="4" height="2" fill="#CC6D51" transform="rotate(174, 487.5, 487.5) translate(806.0, 487.5)"/>
<rect x="0" y="0" width="4" height="2" fill="#CC6D51" transform="rotate(176, 487.5, 487.5) translate(806.0, 487.5)"/>
<rect x="0" y="0" width="4" height="2" fill="#CC6D51" transform="rotate(178, 487.5, 487.5) translate(806.0, 487.5)"/>
<rect x="0" y="0" width="4" height="2" fill="#CC6D51" transform="rotate(180, 487.5, 487.5) translate(806.0, 487.5)"/>
<rect x="0" y="0" width="4" height="2" fill="#CC6D51" transform="rotate(182, 487.5, 487.5) translate(806.0, 487.5)"/>
<rect x="0" y="0" width="4" height="2" fill="#CC6D51" transform="rotate(184, 487.5, 487.5) translate(806.0, 487.5)"/>
<rect x="0" y="0" width="4" height="2" fill="#CC6D51" transform="rotate(186, 487.5, 487.5) translate(806.0, 487.5)"/>
<rect x="0" y="0" width="4" height="2" fill="#CC6D51" transform="rotate(188, 487.5, 487.5) translate(806.0, 487.5)"/>
<rect x="0" y="0" width="4" height="2" fill="#CC6D51" transform="rotate(190, 487.5, 487.5) translate(806.0, 487.5)"/>
<rect x="0" y="0" width="4" height="2" fill="#CC6D51" transform="rotate(192, 487.5, 487.5) translate(806.0, 487.5)"/>
<rect x="0" y="0" width="4" height="2" fill="#CC6D51" transform="rotate(194, 487.5, 487.5) translate(806.0, 487.5)"/>
<rect x="0" y="0" width="4" height="2" fill="#CC6D51" transform="rotate(196, 487.5, 487.5) translate(806.0, 487.5)"/>
<rect x="0" y="0" width="4" height="2" fill="#CC6D51" transform="rotate(198, 487.5, 487.5) translate(806.0, 487.5)"/>
<rect x="0" y="0" width="4" height="2" fill="#CC6D51" transform="rotate(200, 487.5, 487.5) translate(806.0, 487.5)"/>
<rect x="0" y="0" width="4" height="2" fill="#CC6D51" transform="rotate(202, 487.5, 487.5) translate(806.0, 487.5)"/>
<rect x="0" y="0" width="4" height="2" fill="#CC6D51" transform="rotate(204, 487.5, 487.5) translate(806.0, 487.5)"/>
<rect x="0" y="0" width="4" height="2" fill="#CC6D51" transform="rotate(206, 487.5, 487.5) translate(806.0, 487.5)"/>
<rect x="0" y="0" width="4" height="2" fill="#CC6D51" transform="rotate(208, 487.5, 487.5) translate(806.0, 487.5)"/>
<rect x="0" y="0" width="4" height="2" fill="#CC6D51" transform="rotate(210, 487.5, 487.5) translate(806.0, 487.5)"/>
<rect x="0" y="0" width="4" height="2" fill="#CC6D51" transform="rotate(212, 487.5, 487.5) translate(806.0, 487.5)"/>
<rect x="0" y="0" width="4" height="2" fill="#CC6D51" transform="rotate(214, 487.5, 487.5) translate(806.0, 487.5)"/>
<rect x="0" y="0" width="4" height="2" fill="#CC6D51" transform="rotate(216, 487.5, 487.5) translate(806.0, 487.5)"/>
<rect x="0" y="0" width="4" height="2" fill="#CC6D51" transform="rotate(218, 487.5, 487.5) translate(806.0, 487.5)"/>
<rect x="0" y="0" width="4" height="2" fill="#CC6D51" transform="rotate(220, 487.5, 487.5) translate(806.0, 487.5)"/>
<rect x="0" y="0" width="4" height="2" fill="#CC6D51" transform="rotate(222, 487.5, 487.5) translate(806.0, 487.5)"/>
<rect x="0" y="0" width="4" height="2" fill="#CC6D51" transform="rotate(224, 487.5, 487.5) translate(806.0, 487.5)"/>
<rect x="0" y="0" width="4" height="2" fill="#CC6D51" transform="rotate(226, 487.5, 487.5) translate(806.0, 487.5)"/>
<rect x="0" y="0" width="4" height="2" fill="#CC6D51" transform="rotate(228, 487.5, 487.5) translate(806.0, 487.5)"/>
<rect x="0" y="0" width="4" height="2" fill="#CC6D51" transform="rotate(230, 487.5, 487.5) translate(806.0, 487.5)"/>
<rect x="0" y="0" width="4" height="2" fill="#CC6D51" transform="rotate(232, 487.5, 487.5) translate(806.0, 487.5)"/>
<rect x="0" y="0" width="4" height="2" fill="#CC6D51" transform="rotate(234, 487.5, 487.5) translate(806.0, 487.5)"/>
<rect x="0" y="0" width="4" height="2" fill="#CC6D51" transform="rotate(236, 487.5, 487.5) translate(806.0, 487.5)"/>
<rect x="0" y="0" width="4" height="2" fill="#CC6D51" transform="rotate(238, 487.5, 487.5) translate(806.0, 487.5)"/>
<rect x="0" y="0" width="4" height="2" fill="#CC6D51" transform="rotate(240, 487.5, 487.5) translate(806.0, 487.5)"/>
<rect x="0" y="0" width="4" height="2" fill="#CC6D51" transform="rotate(242, 487.5, 487.5) translate(806.0, 487.5)"/>
<rect x="0" y="0" width="4" height="2" fill="#CC6D51" transform="rotate(244, 487.5, 487.5) translate(806.0, 487.5)"/>
<rect x="0" y="0" width="4" height="2" fill="#CC6D51" transform="rotate(246, 487.5, 487.5) translate(806.0, 487.5)"/>
<rect x="0" y="0" width="4" height="2" fill="#CC6D51" transform="rotate(248, 487.5, 487.5) translate(806.0, 487.5)"/>
<rect x="0" y="0" width="4" height="2" fill="#CC6D51" transform="rotate(250, 487.5, 487.5) translate(806.0, 487.5)"/>
<rect x="0" y="0" width="4" height="2" fill="#CC6D51" transform="rotate(252, 487.5, 487.5) translate(806.0, 487.5)"/>
<rect x="0" y="0" width="4" height="2" fill="#CC6D51" transform="rotate(254, 487.5, 487.5) translate(806.0, 487.5)"/>
<rect x="0" y="0" width="4" height="2" fill="#CC6D51" transform="rotate(256, 487.5, 487.5) translate(806.0, 487.5)"/>
<rect x="0" y="0" width="4" height="2" fill="#CC6D51" transform="rotate(258, 487.5, 487.5) translate(806.0, 487.5)"/>
<rect x="0" y="0" width="4" height="2" fill="#CC6D51" transform="rotate(260, 487.5, 487.5) translate(806.0, 487.5)"/>
<rect x="0" y="0" width="4" height="2" fill="#CC6D51" transform="rotate(262, 487.5, 487.5) translate(806.0, 487.5)"/>
<rect x="0" y="0" width="4" height="2" fill="#CC6D51" transform="rotate(264, 487.5, 487.5) translate(806.0, 487.5)"/>
<rect x="0" y="0" width="4" height="2" fill="#CC6D51" transform="rotate(266, 487.5, 487.5) translate(806.0, 487.5)"/>
<rect x="0" y="0" width="4" height="2" fill="#CC6D51" transform="rotate(268, 487.5, 487.5) translate(806.0, 487.5)"/>
<rect x="0" y="0" width="4" height="2" fill="#CC6D51" transform="rotate(270, 487.5, 487.5) translate(806.0, 487.5)"/>
<rect x="0" y="0" width="4" height="2" fill="#CC6D51" transform="rotate(272, 487.5, 487.5) translate(806.0, 487.5)"/>
<rect x="0" y="0" width="4" height="2" fill="#CC6D51" transform="rotate(274, 487.5, 487.5) translate(806.0, 487.5)"/>
<rect x="0" y="0" width="4" height="2" fill="#CC6D51" transform="rotate(276, 487.5, 487.5) translate(806.0, 487.5)"/>
<rect x="0" y="0" width="4" height="2" fill="#CC6D51" transform="rotate(278, 487.5, 487.5) translate(806.0, 487.5)"/>
<rect x="0" y="0" width="4" height="2" fill="#CC6D51" transform="rotate(280, 487.5, 487.5) translate(806.0, 487.5)"/>
<rect x="0" y="0" width="4" height="2" fill="#CC6D51" transform="rotate(282, 487.5, 487.5) translate(806.0, 487.5)"/>
<rect x="0" y="0" width="4" height="2" fill="#CC6D51" transform="rotate(284, 487.5, 487.5) translate(806.0, 487.5)"/>
<rect x="0" y="0" width="4" height="2" fill="#CC6D51" transform="rotate(286, 487.5, 487.5) translate(806.0, 487.5)"/>
<rect x="0" y="0" width="4" height="2" fill="#CC6D51" transform="rotate(288, 487.5, 487.5) translate(806.0, 487.5)"/>
<rect x="0" y="0" width="4" height="2" fill="#CC6D51" transform="rotate(290, 487.5, 487.5) translate(806.0, 487.5)"/>
<rect x="0" y="0" width="4" height="2" fill="#CC6D51" transform="rotate(292, 487.5, 487.5) translate(806.0, 487.5)"/>
<rect x="0" y="0" width="4" height="2" fill="#CC6D51" transform="rotate(294, 487.5, 487.5) translate(806.0, 487.5)"/>
<rect x="0" y="0" width="4" height="2" fill="#CC6D51" transform="rotate(296, 487.5, 487.5) translate(806.0, 487.5)"/>
<rect x="0" y="0" width="4" height="2" fill="#CC6D51" transform="rotate(298, 487.5, 487.5) translate(806.0, 487.5)"/>
<rect x="0" y="0" width="4" height="2" fill="#CC6D51" transform="rotate(300, 487.5, 487.5) translate(806.0, 487.5)"/>
<rect x="0" y="0" width="4" height="2" fill="#CC6D51" transform="rotate(302, 487.5, 487.5) translate(806.0, 487.5)"/>
<rect x="0" y="0" width="4" height="2" fill="#CC6D51" transform="rotate(304, 487.5, 487.5) translate(806.0, 487.5)"/>
<rect x="0" y="0" width="4" height="2" fill="#CC6D51" transform="rotate(306, 487.5, 487.5) translate(806.0, 487.5)"/>
<rect x="0" y="0" width="4" height="2" fill="#CC6D51" transform="rotate(308, 487.5, 487.5) translate(806.0, 487.5)"/>
<rect x="0" y="0" width="4" height="2" fill="#CC6D51" transform="rotate(310, 487.5, 487.5) translate(806.0, 487.5)"/>
<rect x="0" y="0" width="4" height="2" fill="#CC6D51" transform="rotate(312, 487.5, 487.5) translate(806.0, 487.5)"/>
<rect x="0" y="0" width="4" height="2" fill="#CC6D51" transform="rotate(314, 487.5, 487.5) translate(806.0, 487.5)"/>
<rect x="0" y="0" width="4" height="2" fill="#CC6D51" transform="rotate(316, 487.5, 487.5) translate(806.0, 487.5)"/>
<rect x="0" y="0" width="4" height="2" fill="#CC6D51" transform="rotate(318, 487.5, 487.5) translate(806.0, 487.5)"/>
<rect x="0" y="0" width="4" height="2" fill="#CC6D51" transform="rotate(320, 487.5, 487.5) translate(806.0, 487.5)"/>
<rect x="0" y="0" width="4" height="2" fill="#CC6D51" transform="rotate(322, 487.5, 487.5) translate(806.0, 487.5)"/>
<rect x="0" y="0" width="4" height="2" fill="#CC6D51" transform="rotate(324, 487.5, 487.5) translate(806.0, 487.5)"/>
<rect x="0" y="0" width="4" height="2" fill="#CC6D51" transform="rotate(326, 487.5, 487.5) translate(806.0, 487.5)"/>
<rect x="0" y="0" width="4" height="2" fill="#CC6D51" transform="rotate(328, 487.5, 487.5) translate(806.0, 487.5)"/>
<rect x="0" y="0" width="4" height="2" fill="#CC6D51" transform="rotate(330, 487.5, 487.5) translate(806.0, 487.5)"/>
<rect x="0" y="0" width="4" height="2" fill="#CC6D51" transform="rotate(332, 487.5, 487.5) translate(806.0, 487.5)"/>
<rect x="0" y="0" width="4" height="2" fill="#CC6D51" transform="rotate(334, 487.5, 487.5) translate(806.0, 487.5)"/>
<rect x="0" y="0" width="4" height="2" fill="#CC6D51" transform="rotate(336, 487.5, 487.5) translate(806.0, 487.5)"/>
<rect x="0" y="0" width="4" height="2" fill="#CC6D51" transform="rotate(338, 487.5, 487.5) translate(806.0, 487.5)"/>
<rect x="0" y="0" width="4" height="2" fill="#CC6D51" transform="rotate(340, 487.5, 487.5) translate(806.0, 487.5)"/>
<rect x="0" y="0" width="4" height="2" fill="#CC6D51" transform="rotate(342, 487.5, 487.5) translate(806.0, 487.5)"/>
<rect x="0" y="0" width="4" height="2" fill="#CC6D51" transform="rotate(344, 487.5, 487.5) translate(806.0, 487.5)"/>
<rect x="0" y="0" width="4" height="2" fill="#CC6D51" transform="rotate(346, 487.5, 487.5) translate(806.0, 487.5)"/>
<rect x="0" y="0" width="4" height="2" fill="#CC6D51" transform="rotate(348, 487.5, 487.5) translate(806.0, 487.5)"/>
<rect x="0" y="0" width="4" height="2" fill="#CC6D51" transform="rotate(350, 487.5, 487.5) translate(806.0, 487.5)"/>
<rect x="0" y="0" width="4" height="2" fill="#CC6D51" transform="rotate(352, 487.5, 487.5) translate(806.0, 487.5)"/>
<rect x="0" y="0" width="4" height="2" fill="#CC6D51" transform="rotate(354, 487.5, 487.5) translate(806.0, 487.5)"/>
<rect x="0" y="0" width="4" height="2" fill="#CC6D51" transform="rotate(356, 487.5, 487.5) translate(806.0, 487.5)"/>
<rect x="0" y="0" width="4" height="2" fill="#CC6D51" transform="rotate(358, 487.5, 487.5) translate(806.0, 487.5)"/>
<circle cx="487.5" cy="487.5" r="252.5" stroke="#CC6D51" fill="none" stroke-width="2px"/>
<circle cx="487.5" cy="487.5" r="172.5" stroke="#CC6D51" fill="none" stroke-width="2px"/>
<line x1="165.0" y1="486.5" x2="487.5" y2="487.5" stroke="#3B3A39" stroke-width="2" stroke-dasharray="10 5 4" transform="rotate(0, 487.5, 487.5)"/>
<line x1="165.0" y1="486.5" x2="487.5" y2="487.5" stroke="#3B3A39" stroke-width="2" stroke-dasharray="10 5 4" transform="rotate(30, 487.5, 487.5)"/>
<line x1="165.0" y1="486.5" x2="487.5" y2="487.5" stroke="#3B3A39" stroke-width="2" stroke-dasharray="10 5 4" transform="rotate(60, 487.5, 487.5)"/>
<line x1="165.0" y1="486.5" x2="487.5" y2="487.5" stroke="#3B3A39" stroke-width="2" stroke-dasharray="10 5 4" transform="rotate(90, 487.5, 487.5)"/>
<line x1="165.0" y1="486.5" x2="487.5" y2="487.5" stroke="#3B3A39" stroke-width="2" stroke-dasharray="10 5 4" transform="rotate(120, 487.5, 487.5)"/>
<line x1="165.0" y1="486.5" x2="487.5" y2="487.5" stroke="#3B3A39" stroke-width="2" stroke-dasharray="10 5 4" transform="rotate(150, 487.5, 487.5)"/>
<line x1="165.0" y1="486.5" x2="487.5" y2="487.5" stroke="#3B3A39" stroke-width="2" stroke-dasharray="10 5 4" transform="rotate(180, 487.5, 487.5)"/>
<line x1="165.0" y1="486.5" x2="487.5" y2="487.5" stroke="#3B3A39" stroke-width="2" stroke-dasharray="10 5 4" transform="rotate(210, 487.5, 487.5)"/>
<line x1="165.0" y1="486.5" x2="487.5" y2="487.5" stroke="#3B3A39" stroke-width="2" stroke-dasharray="10 5 4" transform="rotate(240, 487.5, 487.5)"/>
<line x1="165.0" y1="486.5" x2="487.5" y2="487.5" stroke="#3B3A39" stroke-width="2" stroke-dasharray="10 5 4" transform="rotate(270, 487.5, 487.5)"/>
<line x1="165.0" y1="486.5" x2="487.5" y2="487.5" stroke="#3B3A39" stroke-width="2" stroke-dasharray="10 5 4" transform="rotate(300, 487.5, 487.5)"/>
<line x1="165.0" y1="486.5" x2="487.5" y2="487.5" stroke="#3B3A39" stroke-width="2" stroke-dasharray="10 5 4" transform="rotate(330, 487.5, 487.5)"/>
<rect x="0" y="0" width="40.0" height="2" fill="#CC6D51" transform="rotate(0, 487.5, 487.5)     translate(850.0, 487.5) "/>
<rect x="0" y="0" width="40.0" height="2" fill="#CC6D51" transform="rotate(10, 487.5, 487.5)     translate(850.0, 487.5) "/>
<rect x="0" y="0" width="40.0" height="2" fill="#CC6D51" transform="rotate(20, 487.5, 487.5)     translate(850.0, 487.5) "/>
<rect x="0" y="0" width="40.0" height="2" fill="#CC6D51" transform="rotate(30, 487.5, 487.5)     translate(850.0, 487.5) "/>
<rect x="0" y="0" width="40.0" height="2" fill="#CC6D51" transform="rotate(40, 487.5, 487.5)     translate(850.0, 487.5) "/>
<rect x="0" y="0" width="40.0" height="2" fill="#CC6D51" transform="rotate(50, 487.5, 487.5)     translate(850.0, 487.5) "/>
<rect x="0" y="0" width="40.0" height="2" fill="#CC6D51" transform="rotate(60, 487.5, 487.5)     translate(850.0, 487.5) "/>
<rect x="0" y="0" width="40.0" height="2" fill="#CC6D51" transform="rotate(70, 487.5, 487.5)     translate(850.0, 487.5) "/>
<rect x="0" y="0" width="40.0" height="2" fill="#CC6D51" transform="rotate(80, 487.5, 487.5)     translate(850.0, 487.5) "/>
<rect x="0" y="0" width="40.0" height="2" fill="#CC6D51" transform="rotate(90, 487.5, 487.5)     translate(850.0, 487.5) "/>
<rect x="0" y="0" width="40.0" height="2" fill="#CC6D51" transform="rotate(100, 487.5, 487.5)     translate(850.0, 487.5) "/>
<rect x="0" y="0" width="40.0" height="2" fill="#CC6D51" transform="rotate(110, 487.5, 487.5)     translate(850.0, 487.5) "/>
<rect x="0" y="0" width="40.0" height="2" fill="#CC6D51" transform="rotate(120, 487.5, 487.5)     translate(850.0, 487.5) "/>
<rect x="0" y="0" width="40.0" height="2" fill="#CC6D51" transform="rotate(130, 487.5, 487.5)     translate(850.0, 487.5) "/>
<rect x="0" y="0" width="40.0" height="2" fill="#CC6D51" transform="rotate(140, 487.5, 487.5)     translate(850.0, 487.5) "/>
<rect x="0" y="0" width="40.0" height="2" fill="#CC6D51" transform="rotate(150, 487.5, 487.5)     translate(850.0, 487.5) "/>
<rect x="0" y="0" width="40.0" height="2" fill="#CC6D51" transform="rotate(160, 487.5, 487.5)     translate(850.0, 487.5) "/>
<rect x="0" y="0" width="40.0" height="2" fill="#CC6D51" transform="rotate(170, 487.5, 487.5)     translate(850.0, 487.5) "/>
<rect x="0" y="0" width="40.0" height="2" fill="#CC6D51" transform="rotate(180, 487.5, 487.5)     translate(850.0, 487.5) "/>
<rect x="0" y="0" width="40.0" height="2" fill="#CC6D51" transform="rotate(190, 487.5, 487.5)     translate(850.0, 487.5) "/>
<rect x="0" y="0" width="40.0" height="2" fill="#CC6D51" transform="rotate(200, 487.5, 487.5)     translate(850.0, 487.5) "/>
<rect x="0" y="0" width="40.0" height="2" fill="#CC6D51" transform="rotate(210, 487.5, 487.5)     translate(850.0, 487.5) "/>
<rect x="0" y="0" width="40.0" height="2" fill="#CC6D51" transform="rotate(220, 487.5, 487.5)     translate(850.0, 487.5) "/>
<rect x="0" y="0" width="40.0" height="2" fill="#CC6D51" transform="rotate(230, 487.5, 487.5)     translate(850.0, 487.5) "/>
<rect x="0" y="0" width="40.0" height="2" fill="#CC6D51" transform="rotate(240, 487.5, 487.5)     translate(850.0, 487.5) "/>
<rect x="0" y="0" width="40.0" height="2" fill="#CC6D51" transform="rotate(250, 487.5, 487.5)     translate(850.0, 487.5) "/>
<rect x="0" y="0" width="40.0" height="2" fill="#CC6D51" transform="rotate(260, 487.5, 487.5)     translate(850.0, 487.5) "/>
<rect x="0" y="0" width="40.0" height="2" fill="#CC6D51" transform="rotate(270, 487.5, 487.5)     translate(850.0, 487.5) "/>
<rect x="0" y="0" width="40.0" height="2" fill="#CC6D51" transform="rotate(280, 487.5, 487.5)     translate(850.0, 487.5) "/>
<rect x="0" y="0" width="40.0" height="2" fill="#CC6D51" transform="rotate(290, 487.5, 487.5)     translate(850.0, 487.5) "/>
<rect x="0" y="0" width="40.0" height="2" fill="#CC6D51" transform="rotate(300, 487.5, 487.5)     translate(850.0, 487.5) "/>
<rect x="0" y="0" width="40.0" height="2" fill="#CC6D51" transform="rotate(310, 487.5, 487.5)     translate(850.0, 487.5) "/>
<rect x="0" y="0" width="40.0" height="2" fill="#CC6D51" transform="rotate(320, 487.5, 487.5)     translate(850.0, 487.5) "/>
<rect x="0" y="0" width="40.0" height="2" fill="#CC6D51" transform="rotate(330, 487.5, 487.5)     translate(850.0, 487.5) "/>
<rect x="0" y="0" width="40.0" height="2" fill="#CC6D51" transform="rotate(340, 487.5, 487.5)     translate(850.0, 487.5) "/>
<rect x="0" y="0" width="40.0" height="2" fill="#CC6D51" transform="rotate(350, 487.5, 487.5)     translate(850.0, 487.5) "/>
<image x="0" y="0" width="31.553784860557766" height="30.0" href="Aries.svg" transform="translate(471.7231075697211, 50.0) rotate(105, 15.776892430278883, 437.5)"/>
<image x="0" y="0" width="30.0" height="30.0" href="Mars.svg" transform="translate(472.5, 90.0) rotate(115, 15.0, 397.5)"/>
<image x="0" y="0" width="30.0" height="30.0" href="Sun.svg" transform="translate(472.5, 90.0) rotate(105, 15.0, 397.5)"/>
<image x="0" y="0" width="28.499999999999996" height="28.5" href="Venus.svg" transform="translate(473.25, 90.75) rotate(95, 14.249999999999998, 396.75)"/>
<rect x="0" y="0" width="40.0" height="2" fill="#CC6D51" transform="rotate(510, 487.5, 487.5) translate(810.0, 487.5) "/>
<rect x="0" y="0" width="40.0" height="2" fill="#CC6D51" transform="rotate(504, 487.5, 487.5) translate(810.0, 487.5) "/>
<rect x="0" y="0" width="40.0" height="2" fill="#CC6D51" transform="rotate(498, 487.5, 487.5) translate(810.0, 487.5) "/>
<rect x="0" y="0" width="40.0" height="2" fill="#CC6D51" transform="rotate(490, 487.5, 487.5) translate(810.0, 487.5) "/>
<rect x="0" y="0" width="40.0" height="2" fill="#CC6D51" transform="rotate(485, 487.5, 487.5) translate(810.0, 487.5) "/>
<rect x="0" y="0" width="40.0" height="2" fill="#CC6D51" transform="rotate(480, 487.5, 487.5) translate(810.0, 487.5) "/>
<image x="0" y="0" width="20.0" height="20.0" href="Jupiter.svg" transform="translate(477.5, 135.0) rotate(597, 10.0, 352.5)"/>
<image x="0" y="0" width="19.0" height="19.0" href="Venus.svg" transform="translate(478.0, 135.5) rotate(591, 9.5, 352.0)"/>
<image x="0" y="0" width="20.0" height="20.0" href="Mercury.svg" transform="translate(477.5, 135.0) rotate(584, 10.0, 352.5)"/>
<image x="0" y="0" width="20.0" height="20.0" href="Mars.svg" transform="translate(477.5, 135.0) rotate(577.5, 10.0, 352.5)"/>
<image x="0" y="0" width="21.999999999999996" height="22.0" href="Saturn.svg" transform="translate(476.5, 134.0) rotate(572.5, 10.999999999999998, 353.5)"/>
<image x="0" y="0" width="28.685258964143426" height="30.0" href="Taurus.svg" transform="translate(474.1573705179283, 50.0) rotate(75, 14.342629482071713, 437.5)"/>
<image x="0" y="0" width="30.0" height="30.0" href="Mercury.svg" transform="translate(472.5, 90.0) rotate(85, 15.0, 397.5)"/>
<image x="0" y="0" width="24.0" height="24.0" href="Moon.svg" transform="translate(475.5, 93.0) rotate(75, 12.0, 394.5)"/>
<image x="0" y="0" width="33.0" height="33.0" href="Saturn.svg" transform="translate(471.0, 88.5) rotate(65, 16.5, 399.0)"/>
<rect x="0" y="0" width="40.0" height="2" fill="#CC6D51" transform="rotate(480, 487.5, 487.5) translate(810.0, 487.5) "/>
<rect x="0" y="0" width="40.0" height="2" fill="#CC6D51" transform="rotate(472, 487.5, 487.5) translate(810.0, 487.5) "/>
<rect x="0" y="0" width="40.0" height="2" fill="#CC6D51" transform="rotate(466, 487.5, 487.5) translate(810.0, 487.5) "/>
<rect x="0" y="0" width="40.0" height="2" fill="#CC6D51" transform="rotate(458, 487.5, 487.5) translate(810.0, 487.5) "/>
<rect x="0" y="0" width="40.0" height="2" fill="#CC6D51" transform="rotate(453, 487.5, 487.5) translate(810.0, 487.5) "/>
<rect x="0" y="0" width="40.0" height="2" fill="#CC6D51" transform="rotate(450, 487.5, 487.5) translate(810.0, 487.5) "/>
<image x="0" y="0" width="19.0" height="19.0" href="Venus.svg" transform="translate(478.0, 135.5) rotate(566, 9.5, 352.0)"/>
<image x="0" y="0" width="20.0" height="20.0" href="Mercury.svg" transform="translate(477.5, 135.0) rotate(559, 10.0, 352.5)"/>
<image x="0" y="0" width="20.0" height="20.0" href="Jupiter.svg" transform="translate(477.5, 135.0) rotate(552, 10.0, 352.5)"/>
<image x="0" y="0" width="20.0" height="20.0" href="Mars.svg" transform="translate(477.5, 135.0) rotate(545.5, 10.0, 352.5)"/>
<image x="0" y="0" width="21.999999999999996" height="22.0" href="Saturn.svg" transform="translate(476.5, 134.0) rotate(541.5, 10.999999999999998, 353.5)"/>
<image x="0" y="0" width="29.163346613545816" height="29.999999999999996" href="Gemini.svg" transform="translate(472.9183266932271, 50.0) rotate(45, 14.581673306772908, 437.5)"/>
<image x="0" y="0" width="29.999999999999996" height="29.999999999999996" href="Jupiter.svg" transform="translate(472.5, 90.0) rotate(55, 14.999999999999998, 397.5)"/>
<image x="0" y="0" width="29.999999999999996" height="29.999999999999996" href="Mars.svg" transform="translate(472.5, 90.0) rotate(45, 14.999999999999998, 397.5)"/>
<image x="0" y="0" width="29.999999999999996" height="29.999999999999996" href="Sun.svg" transform="translate(472.5, 90.0) rotate(35, 14.999999999999998, 397.5)"/>
<rect x="0" y="0" width="40.0" height="2" fill="#CC6D51" transform="rotate(450, 487.5, 487.5) translate(810.0, 487.5) "/>
<rect x="0" y="0" width="40.0" height="2" fill="#CC6D51" transform="rotate(444, 487.5, 487.5) translate(810.0, 487.5) "/>
<rect x="0" y="0" width="40.0" height="2" fill="#CC6D51" transform="rotate(438, 487.5, 487.5) translate(810.0, 487.5) "/>
<rect x="0" y="0" width="40.0" height="2" fill="#CC6D51" transform="rotate(433, 487.5, 487.5) translate(810.0, 487.5) "/>
<rect x="0" y="0" width="40.0" height="2" fill="#CC6D51" transform="rotate(426, 487.5, 487.5) translate(810.0, 487.5) "/>
<rect x="0" y="0" width="40.0" height="2" fill="#CC6D51" transform="rotate(420, 487.5, 487.5) translate(810.0, 487.5) "/>
<image x="0" y="0" width="20.0" height="20.0" href="Mercury.svg" transform="translate(477.5, 135.0) rotate(537, 10.0, 352.5)"/>
<image x="0" y="0" width="20.0" height="20.0" href="Jupiter.svg" transform="translate(477.5, 135.0) rotate(531, 10.0, 352.5)"/>
<image x="0" y="0" width="19.0" height="19.0" href="Venus.svg" transform="translate(478.0, 135.5) rotate(525.5, 9.5, 352.0)"/>
<image x="0" y="0" width="20.0" height="20.0" href="Mars.svg" transform="translate(477.5, 135.0) rotate(519.5, 10.0, 352.5)"/>
<image x="0" y="0" width="21.999999999999996" height="22.0" href="Saturn.svg" transform="translate(476.5, 134.0) rotate(513, 10.999999999999998, 353.5)"/>
<image x="0" y="0" width="38.29787234042553" height="29.999999999999996" href="Cancer.svg" transform="translate(468.3510638297872, 50.0) rotate(15, 19.148936170212764, 437.5)"/>
<image x="0" y="0" width="28.499999999999996" height="28.499999999999996" href="Venus.svg" transform="translate(473.25, 90.75) rotate(25, 14.249999999999998, 396.75)"/>
<image x="0" y="0" width="29.999999999999996" height="29.999999999999996" href="Mercury.svg" transform="translate(472.5, 90.0) rotate(15, 14.999999999999998, 397.5)"/>
<image x="0" y="0" width="24.0" height="24.0" href="Moon.svg" transform="translate(475.5, 93.0) rotate(5, 12.0, 394.5)"/>
<rect x="0" y="0" width="40.0" height="2" fill="#CC6D51" transform="rotate(420, 487.5, 487.5) translate(810.0, 487.5) "/>
<rect x="0" y="0" width="40.0" height="2" fill="#CC6D51" transform="rotate(413, 487.5, 487.5) translate(810.0, 487.5) "/>
<rect x="0" y="0" width="40.0" height="2" fill="#CC6D51" transform="rotate(407, 487.5, 487.5) translate(810.0, 487.5) "/>
<rect x="0" y="0" width="40.0" height="2" fill="#CC6D51" transform="rotate(402, 487.5, 487.5) translate(810.0, 487.5) "/>
<rect x="0" y="0" width="40.0" height="2" fill="#CC6D51" transform="rotate(394, 487.5, 487.5) translate(810.0, 487.5) "/>
<rect x="0" y="0" width="40.0" height="2" fill="#CC6D51" transform="rotate(390, 487.5, 487.5) translate(810.0, 487.5) "/>
<image x="0" y="0" width="20.0" height="20.0" href="Mars.svg" transform="translate(477.5, 135.0) rotate(506.5, 10.0, 352.5)"/>
<image x="0" y="0" width="19.0" height="19.0" href="Venus.svg" transform="translate(478.0, 135.5) rotate(500, 9.5, 352.0)"/>
<image x="0" y="0" width="20.0" height="20.0" href="Mercury.svg" transform="translate(477.5, 135.0) rotate(494.5, 10.0, 352.5)"/>
<image x="0" y="0" width="20.0" height="20.0" href="Jupiter.svg" transform="translate(477.5, 135.0) rotate(488, 10.0, 352.5)"/>
<image x="0" y="0" width="21.999999999999996" height="22.0" href="Saturn.svg" transform="translate(476.5, 134.0) rotate(482, 10.999999999999998, 353.5)"/>
<image x="0" y="0" width="22.5" height="30.0" href="Leo.svg" transform="translate(476.25, 50.0) rotate(-15, 11.25, 437.5)"/>
<image x="0" y="0" width="33.0" height="33.0" href="Saturn.svg" transform="translate(471.0, 88.5) rotate(-5, 16.5, 399.0)"/>
<image x="0" y="0" width="29.999999999999996" height="29.999999999999996" href="Jupiter.svg" transform="translate(472.5, 90.0) rotate(-15, 14.999999999999998, 397.5)"/>
<image x="0" y="0" width="29.999999999999996" height="29.999999999999996" href="Mars.svg" transform="translate(472.5, 90.0) rotate(-25, 14.999999999999998, 397.5)"/>
<rect x="0" y="0" width="40.0" height="2" fill="#CC6D51" transform="rotate(390, 487.5, 487.5) translate(810.0, 487.5) "/>
<rect x="0" y="0" width="40.0" height="2" fill="#CC6D51" transform="rotate(384, 487.5, 487.5) translate(810.0, 487.5) "/>
<rect x="0" y="0" width="40.0" height="2" fill="#CC6D51" transform="rotate(379, 487.5, 487.5) translate(810.0, 487.5) "/>
<rect x="0" y="0" width="40.0" height="2" fill="#CC6D51" transform="rotate(372, 487.5, 487.5) translate(810.0, 487.5) "/>
<rect x="0" y="0" width="40.0" height="2" fill="#CC6D51" transform="rotate(366, 487.5, 487.5) translate(810.0, 487.5) "/>
<rect x="0" y="0" width="40.0" height="2" fill="#CC6D51" transform="rotate(360, 487.5, 487.5) translate(810.0, 487.5) "/>
<image x="0" y="0" width="20.0" height="20.0" href="Jupiter.svg" transform="translate(477.5, 135.0) rotate(477, 10.0, 352.5)"/>
<image x="0" y="0" width="19.0" height="19.0" href="Venus.svg" transform="translate(478.0, 135.5) rotate(471.5, 9.5, 352.0)"/>
<image x="0" y="0" width="21.999999999999996" height="22.0" href="Saturn.svg" transform="translate(476.5, 134.0) rotate(465.5, 10.999999999999998, 353.5)"/>
<image x="0" y="0" width="20.0" height="20.0" href="Mercury.svg" transform="translate(477.5, 135.0) rotate(459, 10.0, 352.5)"/>
<image x="0" y="0" width="20.0" height="20.0" href="Mars.svg" transform="translate(477.5, 135.0) rotate(453, 10.0, 352.5)"/>
<image x="0" y="0" width="24.741035856573703" height="29.999999999999996" href="Virgo.svg" transform="translate(475.12948207171314, 50.0) rotate(-45, 12.370517928286851, 437.5)"/>
<image x="0" y="0" width="29.999999999999996" height="29.999999999999996" href="Sun.svg" transform="translate(472.5, 90.0) rotate(-35, 14.999999999999998, 397.5)"/>
<image x="0" y="0" width="28.499999999999996" height="28.499999999999996" href="Venus.svg" transform="translate(473.25, 90.75) rotate(-45, 14.249999999999998, 396.75)"/>
<image x="0" y="0" width="29.999999999999996" height="29.999999999999996" href="Mercury.svg" transform="translate(472.5, 90.0) rotate(-55, 14.999999999999998, 397.5)"/>
<rect x="0" y="0" width="40.0" height="2" fill="#CC6D51" transform="rotate(360, 487.5, 487.5) translate(810.0, 487.5) "/>
<rect x="0" y="0" width="40.0" height="2" fill="#CC6D51" transform="rotate(353, 487.5, 487.5) translate(810.0, 487.5) "/>
<rect x="0" y="0" width="40.0" height="2" fill="#CC6D51" transform="rotate(343, 487.5, 487.5) translate(810.0, 487.5) "/>
<rect x="0" y="0" width="40.0" height="2" fill="#CC6D51" transform="rotate(339, 487.5, 487.5) translate(810.0, 487.5) "/>
<rect x="0" y="0" width="40.0" height="2" fill="#CC6D51" transform="rotate(332, 487.5, 487.5) translate(810.0, 487.5) "/>
<rect x="0" y="0" width="40.0" height="2" fill="#CC6D51" transform="rotate(330, 487.5, 487.5) translate(810.0, 487.5) "/>
<image x="0" y="0" width="20.0" height="20.0" href="Mercury.svg" transform="translate(477.5, 135.0) rotate(446.5, 10.0, 352.5)"/>
<image x="0" y="0" width="19.0" height="19.0" href="Venus.svg" transform="translate(478.0, 135.5) rotate(438, 9.5, 352.0)"/>
<image x="0" y="0" width="20.0" height="20.0" href="Jupiter.svg" transform="translate(477.5, 135.0) rotate(431, 10.0, 352.5)"/>
<image x="0" y="0" width="20.0" height="20.0" href="Mars.svg" transform="translate(477.5, 135.0) rotate(425.5, 10.0, 352.5)"/>
<image x="0" y="0" width="21.999999999999996" height="22.0" href="Saturn.svg" transform="translate(476.5, 134.0) rotate(421, 10.999999999999998, 353.5)"/>
<image x="0" y="0" width="27.250996015936252" height="29.999999999999996" href="Libra.svg" transform="translate(473.87450199203187, 50.0) rotate(-75, 13.625498007968126, 437.5)"/>
<image x="0" y="0" width="24.0" height="24.0" href="Moon.svg" transform="translate(475.5, 93.0) rotate(-65, 12.0, 394.5)"/>
<image x="0" y="0" width="33.0" height="33.0" href="Saturn.svg" transform="translate(471.0, 88.5) rotate(-75, 16.5, 399.0)"/>
<image x="0" y="0" width="29.999999999999996" height="29.999999999999996" href="Jupiter.svg" transform="translate(472.5, 90.0) rotate(-85, 14.999999999999998, 397.5)"/>
<rect x="0" y="0" width="40.0" height="2" fill="#CC6D51" transform="rotate(330, 487.5, 487.5) translate(810.0, 487.5) "/>
<rect x="0" y="0" width="40.0" height="2" fill="#CC6D51" transform="rotate(324, 487.5, 487.5) translate(810.0, 487.5) "/>
<rect x="0" y="0" width="40.0" height="2" fill="#CC6D51" transform="rotate(316, 487.5, 487.5) translate(810.0, 487.5) "/>
<rect x="0" y="0" width="40.0" height="2" fill="#CC6D51" transform="rotate(309, 487.5, 487.5) translate(810.0, 487.5) "/>
<rect x="0" y="0" width="40.0" height="2" fill="#CC6D51" transform="rotate(302, 487.5, 487.5) translate(810.0, 487.5) "/>
<rect x="0" y="0" width="40.0" height="2" fill="#CC6D51" transform="rotate(300, 487.5, 487.5) translate(810.0, 487.5) "/>
<image x="0" y="0" width="21.999999999999996" height="22.0" href="Saturn.svg" transform="translate(476.5, 134.0) rotate(417, 10.999999999999998, 353.5)"/>
<image x="0" y="0" width="20.0" height="20.0" href="Mercury.svg" transform="translate(477.5, 135.0) rotate(410, 10.0, 352.5)"/>
<image x="0" y="0" width="20.0" height="20.0" href="Jupiter.svg" transform="translate(477.5, 135.0) rotate(402.5, 10.0, 352.5)"/>
<image x="0" y="0" width="19.0" height="19.0" href="Venus.svg" transform="translate(478.0, 135.5) rotate(395.5, 9.5, 352.0)"/>
<image x="0" y="0" width="20.0" height="20.0" href="Mars.svg" transform="translate(477.5, 135.0) rotate(391, 10.0, 352.5)"/>
<image x="0" y="0" width="51.063829787" height="29.999999999999996" href="Scorpio.svg" transform="translate(461.9680851065, 50.0) rotate(-105, 25.5319148935, 437.5)"/>
<image x="0" y="0" width="29.999999999999996" height="29.999999999999996" href="Mars.svg" transform="translate(472.5, 90.0) rotate(-95, 14.999999999999998, 397.5)"/>
<image x="0" y="0" width="29.999999999999996" height="29.999999999999996" href="Sun.svg" transform="translate(472.5, 90.0) rotate(-105, 14.999999999999998, 397.5)"/>
<image x="0" y="0" width="28.499999999999996" height="28.499999999999996" href="Venus.svg" transform="translate(473.25, 90.75) rotate(-115, 14.249999999999998, 396.75)"/>
<rect x="0" y="0" width="40.0" height="2" fill="#CC6D51" transform="rotate(300, 487.5, 487.5) translate(810.0, 487.5) "/>
<rect x="0" y="0" width="40.0" height="2" fill="#CC6D51" transform="rotate(293, 487.5, 487.5) translate(810.0, 487.5) "/>
<rect x="0" y="0" width="40.0" height="2" fill="#CC6D51" transform="rotate(289, 487.5, 487.5) translate(810.0, 487.5) "/>
<rect x="0" y="0" width="40.0" height="2" fill="#CC6D51" transform="rotate(281, 487.5, 487.5) translate(810.0, 487.5) "/>
<rect x="0" y="0" width="40.0" height="2" fill="#CC6D51" transform="rotate(276, 487.5, 487.5) translate(810.0, 487.5) "/>
<rect x="0" y="0" width="40.0" height="2" fill="#CC6D51" transform="rotate(270, 487.5, 487.5) translate(810.0, 487.5) "/>
<image x="0" y="0" width="20.0" height="20.0" href="Mars.svg" transform="translate(477.5, 135.0) rotate(386.5, 10.0, 352.5)"/>
<image x="0" y="0" width="19.0" height="19.0" href="Venus.svg" transform="translate(478.0, 135.5) rotate(381.5, 9.5, 352.0)"/>
<image x="0" y="0" width="20.0" height="20.0" href="Mercury.svg" transform="translate(477.5, 135.0) rotate(375, 10.0, 352.5)"/>
<image x="0" y="0" width="20.0" height="20.0" href="Jupiter.svg" transform="translate(477.5, 135.0) rotate(368.5, 10.0, 352.5)"/>
<image x="0" y="0" width="21.999999999999996" height="22.0" href="Saturn.svg" transform="translate(476.5, 134.0) rotate(363, 10.999999999999998, 353.5)"/>
<image x="0" y="0" width="29.999999999999996" height="29.999999999999996" href="Sagittarius.svg" transform="translate(472.5, 50.0) rotate(-135, 14.999999999999998, 437.5)"/>
<image x="0" y="0" width="29.999999999999996" height="29.999999999999996" href="Mercury.svg" transform="translate(472.5, 90.0) rotate(-125, 14.999999999999998, 397.5)"/>
<image x="0" y="0" width="24.0" height="24.0" href="Moon.svg" transform="translate(475.5, 93.0) rotate(-135, 12.0, 394.5)"/>
<image x="0" y="0" width="33.0" height="33.0" href="Saturn.svg" transform="translate(471.0, 88.5) rotate(-145, 16.5, 399.0)"/>
<rect x="0" y="0" width="40.0" height="2" fill="#CC6D51" transform="rotate(270, 487.5, 487.5) translate(810.0, 487.5) "/>
<rect x="0" y="0" width="40.0" height="2" fill="#CC6D51" transform="rotate(258, 487.5, 487.5) translate(810.0, 487.5) "/>
<rect x="0" y="0" width="40.0" height="2" fill="#CC6D51" transform="rotate(253, 487.5, 487.5) translate(810.0, 487.5) "/>
<rect x="0" y="0" width="40.0" height="2" fill="#CC6D51" transform="rotate(249, 487.5, 487.5) translate(810.0, 487.5) "/>
<rect x="0" y="0" width="40.0" height="2" fill="#CC6D51" transform="rotate(244, 487.5, 487.5) translate(810.0, 487.5) "/>
<rect x="0" y="0" width="40.0" height="2" fill="#CC6D51" transform="rotate(240, 487.5, 487.5) translate(810.0, 487.5) "/>
<image x="0" y="0" width="20.0" height="20.0" href="Jupiter.svg" transform="translate(477.5, 135.0) rotate(354, 10.0, 352.5)"/>
<image x="0" y="0" width="19.0" height="19.0" href="Venus.svg" transform="translate(478.0, 135.5) rotate(345.5, 9.5, 352.0)"/>
<image x="0" y="0" width="20.0" height="20.0" href="Mercury.svg" transform="translate(477.5, 135.0) rotate(341, 10.0, 352.5)"/>
<image x="0" y="0" width="20.0" height="20.0" href="Mars.svg" transform="translate(477.5, 135.0) rotate(336.5, 10.0, 352.5)"/>
<image x="0" y="0" width="21.999999999999996" height="22.0" href="Saturn.svg" transform="translate(476.5, 134.0) rotate(332, 10.999999999999998, 353.5)"/>
<image x="0" y="0" width="31.43426294820717" height="29.999999999999996" href="Capricorn.svg" transform="translate(471.7828685258964, 50.0) rotate(-165, 15.717131474103585, 437.5)"/>
<image x="0" y="0" width="29.999999999999996" height="29.999999999999996" href="Jupiter.svg" transform="translate(472.5, 90.0) rotate(-155, 14.999999999999998, 397.5)"/>
<image x="0" y="0" width="29.999999999999996" height="29.999999999999996" href="Mars.svg" transform="translate(472.5, 90.0) rotate(-165, 14.999999999999998, 397.5)"/>
<image x="0" y="0" width="29.999999999999996" height="29.999999999999996" href="Sun.svg" transform="translate(472.5, 90.0) rotate(-175, 14.999999999999998, 397.5)"/>
<rect x="0" y="0" width="40.0" height="2" fill="#CC6D51" transform="rotate(240, 487.5, 487.5) translate(810.0, 487.5) "/>
<rect x="0" y="0" width="40.0" height="2" fill="#CC6D51" transform="rotate(233, 487.5, 487.5) translate(810.0, 487.5) "/>
<rect x="0" y="0" width="40.0" height="2" fill="#CC6D51" transform="rotate(226, 487.5, 487.5) translate(810.0, 487.5) "/>
<rect x="0" y="0" width="40.0" height="2" fill="#CC6D51" transform="rotate(218, 487.5, 487.5) translate(810.0, 487.5) "/>
<rect x="0" y="0" width="40.0" height="2" fill="#CC6D51" transform="rotate(214, 487.5, 487.5) translate(810.0, 487.5) "/>
<rect x="0" y="0" width="40.0" height="2" fill="#CC6D51" transform="rotate(210, 487.5, 487.5) translate(810.0, 487.5) "/>
<image x="0" y="0" width="20.0" height="20.0" href="Mercury.svg" transform="translate(477.5, 135.0) rotate(327, 10.0, 352.5)"/>
<image x="0" y="0" width="20.0" height="20.0" href="Jupiter.svg" transform="translate(477.5, 135.0) rotate(319.5, 10.0, 352.5)"/>
<image x="0" y="0" width="19.0" height="19.0" href="Venus.svg" transform="translate(478.0, 135.5) rotate(312, 9.5, 352.0)"/>
<image x="0" y="0" width="21.999999999999996" height="22.0" href="Saturn.svg" transform="translate(476.5, 134.0) rotate(306, 10.999999999999998, 353.5)"/>
<image x="0" y="0" width="20.0" height="20.0" href="Mars.svg" transform="translate(477.5, 135.0) rotate(302, 10.0, 352.5)"/>
<image x="0" y="0" width="44.581673306772906" height="29.999999999999996" href="Aquarius.svg" transform="translate(465.20916334661354, 50.0) rotate(-195, 22.290836653386453, 437.5)"/>
<image x="0" y="0" width="28.499999999999996" height="28.499999999999996" href="Venus.svg" transform="translate(473.25, 90.75) rotate(-185, 14.249999999999998, 396.75)"/>
<image x="0" y="0" width="29.999999999999996" height="29.999999999999996" href="Mercury.svg" transform="translate(472.5, 90.0) rotate(-195, 14.999999999999998, 397.5)"/>
<image x="0" y="0" width="24.0" height="24.0" href="Moon.svg" transform="translate(475.5, 93.0) rotate(-205, 12.0, 394.5)"/>
<rect x="0" y="0" width="40.0" height="2" fill="#CC6D51" transform="rotate(570, 487.5, 487.5) translate(810.0, 487.5) "/>
<rect x="0" y="0" width="40.0" height="2" fill="#CC6D51" transform="rotate(563, 487.5, 487.5) translate(810.0, 487.5) "/>
<rect x="0" y="0" width="40.0" height="2" fill="#CC6D51" transform="rotate(557, 487.5, 487.5) translate(810.0, 487.5) "/>
<rect x="0" y="0" width="40.0" height="2" fill="#CC6D51" transform="rotate(550, 487.5, 487.5) translate(810.0, 487.5) "/>
<rect x="0" y="0" width="40.0" height="2" fill="#CC6D51" transform="rotate(545, 487.5, 487.5) translate(810.0, 487.5) "/>
<rect x="0" y="0" width="40.0" height="2" fill="#CC6D51" transform="rotate(540, 487.5, 487.5) translate(810.0, 487.5) "/>
<image x="0" y="0" width="20.0" height="20.0" href="Mercury.svg" transform="translate(477.5, 135.0) rotate(296.5, 10.0, 352.5)"/>
<image x="0" y="0" width="19.0" height="19.0" href="Venus.svg" transform="translate(478.0, 135.5) rotate(290, 9.5, 352.0)"/>
<image x="0" y="0" width="20.0" height="20.0" href="Jupiter.svg" transform="translate(477.5, 135.0) rotate(283.5, 10.0, 352.5)"/>
<image x="0" y="0" width="20.0" height="20.0" href="Mars.svg" transform="translate(477.5, 135.0) rotate(277.5, 10.0, 352.5)"/>
<image x="0" y="0" width="21.999999999999996" height="22.0" href="Saturn.svg" transform="translate(476.5, 134.0) rotate(272.5, 10.999999999999998, 353.5)"/>
<image x="0" y="0" width="24.143426294820717" height="30.0" href="Pisces.svg" transform="translate(475.4282868525896, 50.0) rotate(-225, 12.071713147410359, 437.5)"/>
<image x="0" y="0" width="33.0" height="33.0" href="Saturn.svg" transform="translate(471.0, 88.5) rotate(-215, 16.5, 399.0)"/>
<image x="0" y="0" width="29.999999999999996" height="29.999999999999996" href="Jupiter.svg" transform="translate(472.5, 90.0) rotate(-225, 14.999999999999998, 397.5)"/>
<image x="0" y="0" width="29.999999999999996" height="29.999999999999996" href="Mars.svg" transform="translate(472.5, 90.0) rotate(-235, 14.999999999999998, 397.5)"/>
<rect x="0" y="0" width="40.0" height="2" fill="#CC6D51" transform="rotate(540, 487.5, 487.5) translate(810.0, 487.5) "/>
<rect x="0" y="0" width="40.0" height="2" fill="#CC6D51" transform="rotate(528, 487.5, 487.5) translate(810.0, 487.5) "/>
<rect x="0" y="0" width="40.0" height="2" fill="#CC6D51" transform="rotate(524, 487.5, 487.5) translate(810.0, 487.5) "/>
<rect x="0" y="0" width="40.0" height="2" fill="#CC6D51" transform="rotate(521, 487.5, 487.5) translate(810.0, 487.5) "/>
<rect x="0" y="0" width="40.0" height="2" fill="#CC6D51" transform="rotate(512, 487.5, 487.5) translate(810.0, 487.5) "/>
<rect x="0" y="0" width="40.0" height="2" fill="#CC6D51" transform="rotate(510, 487.5, 487.5) translate(810.0, 487.5) "/>
<image x="0" y="0" width="19.0" height="19.0" href="Venus.svg" transform="translate(478.0, 135.5) rotate(264, 9.5, 352.0)"/>
<image x="0" y="0" width="20.0" height="20.0" href="Jupiter.svg" transform="translate(477.5, 135.0) rotate(256, 10.0, 352.5)"/>
<image x="0" y="0" width="20.0" height="20.0" href="Mercury.svg" transform="translate(477.5, 135.0) rotate(252.5, 10.0, 352.5)"/>
<image x="0" y="0" width="20.0" height="20.0" href="Mars.svg" transform="translate(477.5, 135.0) rotate(246.5, 10.0, 352.5)"/>
<image x="0" y="0" width="21.999999999999996" height="22.0" href="Saturn.svg" transform="translate(476.5, 134.0) rotate(241, 10.999999999999998, 353.5)"/>
<text x="359.019583190993" y="554.75" font-weight="bold" font-family="hasklig" font-size="12.0" fill="#cfcfcf">
0
</text>
<image x="345.4311259228731" y="553.75" width="20.0" height="20.0" href="Uranus.svg"/>
<text x="399.7284359032683" y="540.5558203624718" font-weight="bold" font-family="hasklig" font-size="12.0" fill="#cfcfcf">
5
</text>
<image x="386.9836991060664" y="540.8801962167906" width="20.0" height="20.0" href="Mercury.svg"/>
<text x="372.46702240049746" y="573.9549335028396" font-weight="bold" font-family="hasklig" font-size="12.0" fill="#cfcfcf">
10
</text>
<image x="360.67822242435585" y="575.5251104771972" width="20.0" height="20.0" href="Sun.svg"/>
<text x="398.35396931078435" y="597.6759499568694" font-weight="bold" font-family="hasklig" font-size="12.0" fill="#cfcfcf">
25
</text>
<image x="390.0295934564655" y="602.4206867540713" width="20.0" height="20.0" href="Neptune.svg"/>
<text x="503.46412241498865" y="619.0608522986969" font-weight="bold" font-family="hasklig" font-size="12.0" fill="#cfcfcf">
12
</text>
<image x="509.2065328497083" y="626.6675091119054" width="20.0" height="20.0" href="Moon.svg"/>
<text x="464.2270857350239" y="579.3105190268222" font-weight="bold" font-family="hasklig" font-size="12.0" fill="#cfcfcf">
23
</text>
<image x="464.03343755373123" y="587.1763497563661" width="20.0" height="20.0" href="sn.svg"/>
<text x="463.77755260043995" y="621.4881868933397" font-weight="bold" font-family="hasklig" font-size="12.0" fill="#cfcfcf">
25
</text>
<image x="464.2087492309821" y="629.4196914589912" width="20.0" height="20.0" href="Venus.svg"/>
<text x="392.0835238986391" y="406.5558793860495" font-weight="bold" font-family="hasklig" font-size="12.0" fill="#cfcfcf">
23
</text>
<image x="355.7080847177878" y="385.7232089693127" width="20.0" height="20.0" href="Mars.svg"/>
<text x="341.0204850014654" y="489.8473486658142" font-weight="bold" font-family="hasklig" font-size="12.0" fill="#cfcfcf">
1
</text>
<image x="325.0232264886504" y="480.1614919816867" width="20.0" height="20.0" href="Jupiter.svg"/>
<text x="380.74354876047437" y="424.3560748052977" font-weight="bold" font-family="hasklig" font-size="12.0" fill="#cfcfcf">
2
</text>
<image x="342.85049208901364" y="405.90558667515165" width="20.0" height="20.0" href="asc.svg"/>
<text x="367.4711438262892" y="461.8361901218547" font-weight="bold" font-family="hasklig" font-size="12.0" fill="#cfcfcf">
19
</text>
<image x="327.8018545242312" y="448.40162820507703" width="20.0" height="20.0" href="Saturn.svg"/>
<text x="365.51181310666027" y="475.7775526004398" font-weight="bold" font-family="hasklig" font-size="12.0" fill="#cfcfcf">
25
</text>
<image x="325.5803085410088" y="464.2087492309821" width="20.0" height="20.0" href="Pluto.svg"/>
<text x="550.6439251947022" y="380.7435487604743" font-weight="bold" font-family="hasklig" font-size="12.0" fill="#cfcfcf">
2
</text>
<image x="549.0944133248483" y="342.85049208901364" width="20.0" height="20.0" href="mc.svg"/>
<text x="503.89142668799235" y="366.0025426042422" font-weight="bold" font-family="hasklig" font-size="12.0" fill="#cfcfcf">
23
</text>
<image x="496.085074869285" y="326.1367118746984" width="20.0" height="20.0" href="nn.svg"/>

</svg>