<?xml version="1.0" standalone="no"?>
<!DOCTYPE svg PUBLIC "-//W3C//DTD SVG 1.1//EN" "http://www.w3.org/Graphics/SVG/1.1/DTD/svg11.dtd">

<svg width="975" height="975" 
  xmlns="http://www.w3.org/2000/svg"
  xmlns:xlink="http://www.w3.org/1999/xlink">


<rect x="0" y="0" width="975" height="975" fill="#151414"/>
<circle cx="487.5" cy="487.5" r="442.5" stroke="#CC6D51" fill="none" stroke-width="2px"/>
<circle cx="487.5" cy="487.5" r="402.5" stroke="#CC6D51" fill="none" stroke-width="2px"/>
<circle cx="487.5" cy="487.5" r="362.5" stroke="#CC6D51" fill="none" stroke-width="2px"/>
<circle cx="487.5" cy="487.5" r="322.5" stroke="#CC6D51" fill="none" stroke-width="2px"/>
<rect x="0" y="0" width="4" height="2" fill="#CC6D51" transform="rotate(0, 487.5, 487.5) translate(806.0, 487.5)"/>
<rect x="0" y="0" width="4" height="2" fill="#CC6D51" transform="rotate(2, 487.5, 487.5) translate(806.0, 487.5)"/>
<rect x="0" y="0" width="4" height="2" fill="#CC6D51" transform="rotate(4, 487.5, 487.5) translate(806.0, 487.5)"/>
<rect x="0" y="0" width="4" height="2" fill="#CC6D51" transform="rotate(6, 487.5, 487.5) translate(806.0, 487.5)"/>
<rect x="0" y="0" width="4" height="2" fill="#CC6D51" transform="rotate(8, 487.5, 487.5) translate(806.0, 487.5)"/>
<rect x="0" y="0" width="4" height="2" fill="#CC6D51" transform="rotate(10, 487.5, 487.5) translate(806.0, 487.5)"/>
<rect x="0" y="0" width="4" height="2" fill="#CC6D51" transform="rotate(12, 487.5, 487.5) translate(806.0, 487.5)"/>
<rect x="0" y="0" width="4" height="2" fill="#CC6D51" transform="rotate(14, 487.5, 487.5) translate(806.0, 487.5)"/>
<rect x="0" y="0" width="4" height="2" fill="#CC6D51" transform="rotate(16, 487.5, 487.5) translate(806.0, 487.5)"/>
<rect x="0" y="0" width="4" height="2" fill="#CC6D51" transform="rotate(18, 487.5, 487.5) translate(806.0, 487.5)"/>
<rect x="0" y="0" width="4" height="2" fill="#CC6D51" transform="rotate(20, 487.5, 487.5) translate(806.0, 487.5)"/>
<rect x="0" y="0" width="4" height="2" fill="#CC6D51" transform="rotate(22, 487.5, 487.5) translate(806.0, 487.5)"/>
<rect x="0" y="0" width="4" height="2" fill="#CC6D51" transform="rotate(24, 487.5, 487.5) translate(806.0, 487.5)"/>
<rect x="0" y="0" width="4" height="2" fill="#CC6D51" transform="rotate(26, 487.5, 487.5) translate(806.0, 487.5)"/>
<rect x="0" y="0" width="4" height="2" fill="#CC6D51" transform="rotate(28, 487.5, 487.5) translate(806.0, 487.5)"/>
<rect x="0" y="0" width="4" height="2" fill="#CC6D51" transform="rotate(30, 487.5, 487.5) translate(806.0, 487.5)"/>
<rect x="0" y="0" width="4" height="2" fill="#CC6D51" transform="rotate(32, 487.5, 487.5) translate(806.0, 487.5)"/>
<rect x="0" y="0" width="4" height="2" fill="#CC6D51" transform="rotate(34, 487.5, 487.5) translate(806.0, 487.5)"/>
<rect x="0" y="0" width="4" height="2" fill="#CC6D51" transform="rotate(36, 487.5, 487.5) translate(806.0, 487.5)"/>
<rect x="0" y="0" width="4" height="2" fill="#CC6D51" transform="rotate(38, 487.5, 487.5) translate(806.0, 487.5)"/>
<rect x="0" y="0" width="4" height="2" fill="#CC6D51" transform="rotate(40, 487.5, 487.5) translate(806.0, 487.5)"/>
<rect x="0" y="0" width="4" height="2" fill="#CC6D51" transform="rotate(42, 487.5, 487.5) translate(806.0, 487.5)"/>
<rect x="0" y="0" width="4" height="2" fill="#CC6D51" transform="rotate(44, 487.5, 487.5) translate(806.0, 487.5)"/>
<rect x="0" y="0" width="4" height="2" fill="#CC6D51" transform="rotate(46, 487.5, 487.5) translate(806.0, 487.5)"/>
<rect x="0" y="0" width="4" height="2" fill="#CC6D51" transform="rotate(48, 487.5, 487.5) translate(806.0, 487.5)"/>
<rect x="0" y="0" width="4" height="2" fill="#CC6D51" transform="rotate(50, 487.5, 487.5) translate(806.0, 487.5)"/>
<rect x="0" y="0" width="4" height="2" fill="#CC6D51" transform="rotate(52, 487.5, 487.5) translate(806.0, 487.5)"/>
<rect x="0" y="0" width="4" height="2" fill="#CC6D51" transform="rotate(54, 487.5, 487.5) translate(806.0, 487.5)"/>
<rect x="0" y="0" width="4" height="2" fill="#CC6D51" transform="rotate(56, 487.5, 487.5) translate(806.0, 487.5)"/>
<rect x="0" y="0" width="4" height="2" fill="#CC6D51" transform="rotate(58, 487.5, 487.5) translate(806.0, 487.5)"/>
<rect x="0" y="0" width="4" height="2" fill="#CC6D51" transform="rotate(60, 487.5, 487.5) translate(806.0, 487.5)"/>
<rect x="0" y="0" width="4" height="2" fill="#CC6D51" transform="rotate(62, 487.5, 487.5) translate(806.0, 487.5)"/>
<rect x="0" y="0" width="4" height="2" fill="#CC6D51" transform="rotate(64, 487.5, 487.5) translate(806.0, 487.5)"/>
<rect x="0" y="0" width="4" height="2" fill="#CC6D51" transform="rotate(66, 487.5, 487.5) translate(806.0, 487.5)"/>
<rect x="0" y="0" width="4" height="2" fill="#CC6D51" transform="rotate(68, 487.5, 487.5) translate(806.0, 487.5)"/>
<rect x="0" y="0" width="4" height="2" fill="#CC6D51" transform="rotate(70, 487.5, 487.5) translate(806.0, 487.5)"/>
<rect x="0" y="0" width="4" height="2" fill="#CC6D51" transform="rotate(72, 487.5, 487.5) translate(806.0, 487.5)"/>
<rect x="0" y="0" width="4" height="2" fill="#CC6D51" transform="rotate(74, 487.5, 487.5) translate(806.0, 487.5)"/>
<rect x="0" y="0" width="4" height="2" fill="#CC6D51" transform="rotate(76, 487.5, 487.5) translate(806.0, 487.5)"/>
<rect x="0" y="0" width="4" height="2" fill="#CC6D51" transform="rotate(78, 487.5, 487.5) translate(806.0, 487.5)"/>
<rect x="0" y="0" width="4" height="2" fill="#CC6D51" transform="rotate(80, 487.5, 487.5) translate(806.0, 487.5)"/>
<rect x="0" y="0" width="4" height="2" fill="#CC6D51" transform="rotate(82, 487.5, 487.5) translate(806.0, 487.5)"/>
<rect x="0" y="0" width="4" height="2" fill="#CC6D51" transform="rotate(84, 487.5, 487.5) translate(806.0, 487.5)"/>
<rect x="0" y="0" width="4" height="2" fill="#CC6D51" transform="rotate(86, 487.5, 487.5) translate(806.0, 487.5)"/>
<rect x="0" y="0" width="4" height="2" fill="#CC6D51" transform="rotate(88, 487.5, 487.5) translate(806.0, 487.5)"/>
<rect x="0" y="0" width="4" height="2" fill="#CC6D51" transform="rotate(90, 487.5, 487.5) translate(806.0, 487.5)"/>
<rect x="0" y="0" width="4" height="2" fill="#CC6D51" transform="rotate(92, 487.5, 487.5) translate(806.0, 487.5)"/>
<rect x="0" y="0" width="4" height="2" fill="#CC6D51" transform="rotate(94, 487.5, 487.5) translate(806.0, 487.5)"/>
<rect x="0" y="0" width="4" height="2" fill="#CC6D51" transform="rotate(96, 487.5, 487.5) translate(806.0, 487.5)"/>
<rect x="0" y="0" width="4" height="2" fill="#CC6D51" transform="rotate(98, 487.5, 487.5) translate(806.0, 487.5)"/>
<rect x="0" y="0" width="4" height="2" fill="#CC6D51" transform="rotate(100, 487.5, 487.5) translate(806.0, 487.5)"/>
<rect x="0" y="0" width="4" height="2" fill="#CC6D51" transform="rotate(102, 487.5, 487.5) translate(806.0, 487.5)"/>
<rect x="0" y="0" width="4" height="2" fill="#CC6D51" transform="rotate(104, 487.5, 487.5) translate(806.0, 487.5)"/>
<rect x="0" y="0" width="4" height="2" fill="#CC6D51" transform="rotate(106, 487.5, 487.5) translate(806.0, 487.5)"/>
<rect x="0" y="0" width="4" height="2" fill="#CC6D51" transform="rotate(108, 487.5, 487.5) translate(806.0, 487.5)"/>
<rect x="0" y="0" width="4" height="2" fill="#CC6D51" transform="rotate(110, 487.5, 487.5) translate(806.0, 487.5)"/>
<rect x="0" y="0" width="4" height="2" fill="#CC6D51" transform="rotate(112, 487.5, 487.5) translate(806.0, 487.5)"/>
<rect x="0" y="0" width="4" height="2" fill="#CC6D51" transform="rotate(114, 487.5, 487.5) translate(806.0, 487.5)"/>
<rect x="0" y="0" width="4" height="2" fill="#CC6D51" transform="rotate(116, 487.5, 487.5) translate(806.0, 487.5)"/>
<rect x="0" y="0" width="4" height="2" fill="#CC6D51" transform="rotate(118, 487.5, 487.5) translate(806.0, 487.5)"/>
<rect x="0" y="0" width="4" height="2" fill="#CC6D51" transform="rotate(120, 487.5, 487.5) translate(806.0, 487.5)"/>
<rect x="0" y="0" width="4" height="2" fill="#CC6D51" transform="rotate(122, 487.5, 487.5) translate(806.0, 487.5)"/>
<rect x="0" y="0" width="4" height="2" fill="#CC6D51" transform="rotate(124, 487.5, 487.5) translate(806.0, 487.5)"/>
<rect x="0" y="0" width="4" height="2" fill="#CC6D51" transform="rotate(126, 487.5, 487.5) translate(806.0, 487.5)"/>
<rect x="0" y="0" width="4" height="2" fill="#CC6D51" transform="rotate(128, 487.5, 487.5) translate(806.0, 487.5)"/>
<rect x="0" y="0" width="4" height="2" fill="#CC6D51" transform="rotate(130, 487.5, 487.5) translate(806.0, 487.5)"/>
<rect x="0" y="0" width="4" height="2" fill="#CC6D51" transform="rotate(132, 487.5, 487.5) translate(806.0, 487.5)"/>
<rect x="0" y="0" width="4" height="2" fill="#CC6D51" transform="rotate(134, 487.5, 487.5) translate(806.0, 487.5)"/>
<rect x="0" y="0" width="4" height="2" fill="#CC6D51" transform="rotate(136, 487.5, 487.5) translate(806.0, 487.5)"/>
<rect x="0" y="0" width="4" height="2" fill="#CC6D51" transform="rotate(138, 487.5, 487.5) translate(806.0, 487.5)"/>
<rect x="0" y="0" width="4" height="2" fill="#CC6D51" transform="rotate(140, 487.5, 487.5) translate(806.0, 487.5)"/>
<rect x="0" y="0" width="4" height="2" fill="#CC6D51" transform="rotate(142, 487.5, 487.5) translate(806.0, 487.5)"/>
<rect x="0" y="0" width="4" height="2" fill="#CC6D51" transform="rotate(144, 487.5, 487.5) translate(806.0, 487.5)"/>
<rect x="0" y="0" width="4" height="2" fill="#CC6D51" transform="rotate(146, 487.5, 487.5) translate(806.0, 487.5)"/>
<rect x="0" y="0" width="4" height="2" fill="#CC6D51" transform="rotate(148, 487.5, 487.5) translate(806.0, 487.5)"/>
<rect x="0" y="0" width="4" height="2" fill="#CC6D51" transform="rotate(150, 487.5, 487.5) translate(806.0, 487.5)"/>
<rect x="0" y="0" width="4" height="2" fill="#CC6D51" transform="rotate(152, 487.5, 487.5) translate(806.0, 487.5)"/>
<rect x="0" y="0" width="4" height="2" fill="#CC6D51" transform="rotate(154, 487.5, 487.5) translate(806.0, 487.5)"/>
<rect x="0" y="0" width="4" height="2" fill="#CC6D51" transform="rotate(156, 487.5, 487.5) translate(806.0, 487.5)"/>
<rect x="0" y="0" width="4" height="2" fill="#CC6D51" transform="rotate(158, 487.5, 487.5) translate(806.0, 487.5)"/>
<rect x="0" y="0" width="4" height="2" fill="#CC6D51" transform="rotate(160, 487.5, 487.5) translate(806.0, 487.5)"/>
<rect x="0" y="0" width="4" height="2" fill="#CC6D51" transform="rotate(162, 487.5, 487.5) translate(806.0, 487.5)"/>
<rect x="0" y="0" width="4" height="2" fill="#CC6D51" transform="rotate(164, 487.5, 487.5) translate(806.0, 487.5)"/>
<rect x="0" y="0" width="4" height="2" fill="#CC6D51" transform="rotate(166, 487.5, 487.5) translate(806.0, 487.5)"/>
<rect x="0" y="0" width="4" height="2" fill="#CC6D51" transform="rotate(168, 487.5, 487.5) translate(806.0, 487.5)"/>
<rect x="0" y="0" width="4" height="2" fill="#CC6D51" transform="rotate(170, 487.5, 487.5) translate(806.0, 487.5)"/>
<rect x="0" y="0" width="4" height="2" fill="#CC6D51" transform="rotate(172, 487.5, 487.5) translate(806.0, 487.5)"/>
<rect x="0" y="0" width="4" height="2" fill="#CC6D51" transform="rotate(174, 487.5, 487.5) translate(806.0, 487.5)"/>
<rect x="0" y="0" width="4" height="2" fill="#CC6D51" transform="rotate(176, 487.5, 487.5) translate(806.0, 487.5)"/>
<rect x="0" y="0" width="4" height="2" fill="#CC6D51" transform="rotate(178, 487.5, 487.5) translate(806.0, 487.5)"/>
<rect x="0" y="0" width="4" height="2" fill="#CC6D51" transform="rotate(180, 487.5, 487.5) translate(806.0, 487.5)"/>
<rect x="0" y="0" width="4" height="2" fill="#CC6D51" transform="rotate(182, 487.5, 487.5) translate(806.0, 487.5)"/>
<rect x="0" y="0" width="4" height="2" fill="#CC6D51" transform="rotate(184, 487.5, 487.5) translate(806.0, 487.5)"/>
<rect x="0" y="0" width="4" height="2" fill="#CC6D51" transform="rotate(186, 487.5, 487.5) translate(806.0, 487.5)"/>
<rect x="0" y="0" width="4" height="2" fill="#CC6D51" transform="rotate(188, 487.5, 487.5) translate(806.0, 487.5)"/>
<rect x="0" y="0" width="4" height="2" fill="#CC6D51" transform="rotate(190, 487.5, 487.5) translate(806.0, 487.5)"/>
<rect x="0" y="0" width="4" height="2" fill="#CC6D51" transform="rotate(192, 487.5, 487.5) translate(806.0, 487.5)"/>
<rect x="0" y="0" width="4" height="2" fill="#CC6D51" transform="rotate(194, 487.5, 487.5) translate(806.0, 487.5)"/>
<rect x="0" y="0" width="4" height="2" fill="#CC6D51" transform="rotate(196, 487.5, 487.5) translate(806.0, 487.5)"/>
<rect x="0" y="0" width="4" height="2" fill="#CC6D51" transform="rotate(198, 487.5, 487.5) translate(806.0, 487.5)"/>
<rect x="0" y="0" width="4" height="2" fill="#CC6D51" transform="rotate(200, 487.5, 487.5) translate(806.0, 487.5)"/>
<rect x="0" y="0" width="4" height="2" fill="#CC6D51" transform="rotate(202, 487.5, 487.5) translate(806.0, 487.5)"/>
<rect x="0" y="0" width="4" height="2" fill="#CC6D51" transform="rotate(204, 487.5, 487.5) translate(806.0, 487.5)"/>
<rect x="0" y="0" width="4" height="2" fill="#CC6D51" transform="rotate(206, 487.5, 487.5) translate(806.0, 487.5)"/>
<rect x="0" y="0" width="4" height="2" fill="#CC6D51" transform="rotate(208, 487.5, 487.5) translate(806.0, 487.5)"/>
<rect x="0" y="0" width="4" height="2" fill="#CC6D51" transform="rotate(210, 487.5, 487.5) translate(806.0, 487.5)"/>
<rect x="0" y="0" width="4" height="2" fill="#CC6D51" transform="rotate(212, 487.5, 487.5) translate(806.0, 487.5)"/>
<rect x="0" y="0" width="4" height="2" fill="#CC6D51" transform="rotate(214, 487.5, 487.5) translate(806.0, 487.5)"/>
<rect x="0" y="0" width="4" height="2" fill="#CC6D51" transform="rotate(216, 487.5, 487.5) translate(806.0, 487.5)"/>
<rect x="0" y="0" width="4" height="2" fill="#CC6D51" transform="rotate(218, 487.5, 487.5) translate(806.0, 487.5)"/>
<rect x="0" y="0" width="4" height="2" fill="#CC6D51" transform="rotate(220, 487.5, 487.5) translate(806.0, 487.5)"/>
<rect x="0" y="0" width="4" height="2" fill="#CC6D51" transform="rotate(222, 487.5, 487.5) translate(806.0, 487.5)"/>
<rect x="0" y="0" width="4" height="2" fill="#CC6D51" transform="rotate(224, 487.5, 487.5) translate(806.0, 487.5)"/>
<rect x="0" y="0" width="4" height="2" fill="#CC6D51" transform="rotate(226, 487.5, 487.5) translate(806.0, 487.5)"/>
<rect x="0" y="0" width="4" height="2" fill="#CC6D51" transform="rotate(228, 487.5, 487.5) translate(806.0, 487.5)"/>
<rect x="0" y="0" width="4" height="2" fill="#CC6D51" transform="rotate(230, 487.5, 487.5) translate(806.0, 487.5)"/>
<rect x="0" y="0" width="4" height="2" fill="#CC6D51" transform="rotate(232, 487.5, 487.5) translate(806.0, 487.5)"/>
<rect x="0" y="0" width="4" height="2" fill="#CC6D51" transform="rotate(234, 487.5, 487.5) translate(806.0, 487.5)"/>
<rect x="0" y="0" width="4" height="2" fill="#CC6D51" transform="rotate(236, 487.5, 487.5) translate(806.0, 487.5)"/>
<rect x="0" y="0" width="4" height="2" fill="#CC6D51" transform="rotate(238, 487.5, 487.5) translate(806.0, 487.5)"/>
<rect x="0" y="0" width="4" height="2" fill="#CC6D51" transform="rotate(240, 487.5, 487.5) translate(806.0, 487.5)"/>
<rect x="0" y="0" width="4" height="2" fill="#CC6D51" transform="rotate(242, 487.5, 487.5) translate(806.0, 487.5)"/>
<rect x="0" y="0" width="4" height="2" fill="#CC6D51" transform="rotate(244, 487.5, 487.5) translate(806.0, 487.5)"/>
<rect x="0" y="0" width="4" height="2" fill="#CC6D51" transform="rotate(246, 487.5, 487.5) translate(806.0, 487.5)"/>
<rect x="0" y="0" width="4" height="2" fill="#CC6D51" transform="rotate(248, 487.5, 487.5) translate(806.0, 487.5)"/>
<rect x="0" y="0" width="4" height="2" fill="#CC6D51" transform="rotate(250, 487.5, 487.5) translate(806.0, 487.5)"/>
<rect x="0" y="0" width="4" height="2" fill="#CC6D51" transform="rotate(252, 487.5, 487.5) translate(806.0, 487.5)"/>
<rect x="0" y="0" width="4" height="2" fill="#CC6D51" transform="rotate(254, 487.5, 487.5) translate(806.0, 487.5)"/>
<rect x="0" y="0" width="4" height="2" fill="#CC6D51" transform="rotate(256, 487.5, 487.5) translate(806.0, 487.5)"/>
<rect x="0" y="0" width="4" height="2" fill="#CC6D51" transform="rotate(258, 487.5, 487.5) translate(806.0, 487.5)"/>
<rect x="0" y="0" width="4" height="2" fill="#CC6D51" transform="rotate(260, 487.5, 487.5) translate(806.0, 487.5)"/>
<rect x="0" y="0" width="4" height="2" fill="#CC6D51" transform="rotate(262, 487.5, 487.5) translate(806.0, 487.5)"/>
<rect x="0" y="0" width="4" height="2" fill="#CC6D51" transform="rotate(264, 487.5, 487.5) translate(806.0, 487.5)"/>
<rect x="0" y="0" width="4" height="2" fill="#CC6D51" transform="rotate(266, 487.5, 487.5) translate(806.0, 487.5)"/>
<rect x="0" y="0" width="4" height="2" fill="#CC6D51" transform="rotate(268, 487.5, 487.5) translate(806.0, 487.5)"/>
<rect x="0" y="0" width="4" height="2" fill="#CC6D51" transform="rotate(270, 487.5, 487.5) translate(806.0, 487.5)"/>
<rect x="0" y="0" width="4" height="2" fill="#CC6D51" transform="rotate(272, 487.5, 487.5) translate(806.0, 487.5)"/>
<rect x="0" y="0" width="4" height="2" fill="#CC6D51" transform="rotate(274, 487.5, 487.5) translate(806.0, 487.5)"/>
<rect x="0" y="0" width="4" height="2" fill="#CC6D51" transform="rotate(276, 487.5, 487.5) translate(806.0, 487.5)"/>
<rect x="0" y="0" width="4" height="2" fill="#CC6D51" transform="rotate(278, 487.5, 487.5) translate(806.0, 487.5)"/>
<rect x="0" y="0" width="4" height="2" fill="#CC6D51" transform="rotate(280, 487.5, 487.5) translate(806.0, 487.5)"/>
<rect x="0" y="0" width="4" height="2" fill="#CC6D51" transform="rotate(282, 487.5, 487.5) translate(806.0, 487.5)"/>
<rect x="0" y="0" width="4" height="2" fill="#CC6D51" transform="rotate(284, 487.5, 487.5) translate(806.0, 487.5)"/>
<rect x="0" y="0" width="4" height="2" fill="#CC6D51" transform="rotate(286, 487.5, 487.5) translate(806.0, 487.5)"/>
<rect x="0" y="0" width="4" height="2" fill="#CC6D51" transform="rotate(288, 487.5, 487.5) translate(806.0, 487.5)"/>
<rect x="0" y="0" width="4" height="2" fill="#CC6D51" transform="rotate(290, 487.5, 487.5) translate(806.0, 487.5)"/>
<rect x="0" y="0" width="4" height="2" fill="#CC6D51" transform="rotate(292, 487.5, 487.5) translate(806.0, 487.5)"/>
<rect x="0" y="0" width="4" height="2" fill="#CC6D51" transform="rotate(294, 487.5, 487.5) translate(806.0, 487.5)"/>
<rect x="0" y="0" width="4" height="2" fill="#CC6D51" transform="rotate(296, 487.5, 487.5) translate(806.0, 487.5)"/>
<rect x="0" y="0" width="4" height="2" fill="#CC6D51" transform="rotate(298, 487.5, 487.5) translate(806.0, 487.5)"/>
<rect x="0" y="0" width="4" height="2" fill="#CC6D51" transform="rotate(300, 487.5, 487.5) translate(806.0, 487.5)"/>
<rect x="0" y="0" width="4" height="2" fill="#CC6D51" transform="rotate(302, 487.5, 487.5) translate(806.0, 487.5)"/>
<rect x="0" y="0" width="4" height="2" fill="#CC6D51" transform="rotate(304, 487.5, 487.5) translate(806.0, 487.5)"/>
<rect x="0" y="0" width="4" height="2" fill="#CC6D51" transform="rotate(306, 487.5, 487.5) translate(806.0, 487.5)"/>
<rect x="0" y="0" width="4" height="2" fill="#CC6D51" transform="rotate(308, 487.5, 487.5) translate(806.0, 487.5)"/>
<rect x="0" y="0" width="4" height="2" fill="#CC6D51" transform="rotate(310, 487.5, 487.5) translate(806.0, 487.5)"/>
<rect x="0" y="0" width="4" height="2" fill="#CC6D51" transform="rotate(312, 487.5, 487.5) translate(806.0, 487.5)"/>
<rect x="0" y="0" width="4" height="2" fill="#CC6D51" transform="rotate(314, 487.5, 487.5) translate(806.0, 487.5)"/>
<rect x="0" y="0" width="4" height="2" fill="#CC6D51" transform="rotate(316, 487.5, 487.5) translate(806.0, 487.5)"/>
<rect x="0" y="0" width="4" height="2" fill="#CC6D51" transform="rotate(318, 487.5, 487.5) translate(806.0, 487.5)"/>
<rect x="0" y="0" width="4" height="2" fill="#CC6D51" transform="rotate(320, 487.5, 487.5) translate(806.0, 487.5)"/>
<rect x="0" y="0" width="4" height="2" fill="#CC6D51" transform="rotate(322, 487.5, 487.5) translate(806.0, 487.5)"/>
<rect x="0" y="0" width="4" height="2" fill="#CC6D51" transform="rotate(324, 487.5, 487.5) translate(806.0, 487.5)"/>
<rect x="0" y="0" width="4" height="2" fill="#CC6D51" transform="rotate(326, 487.5, 487.5) translate(806.0, 487.5)"/>
<rect x="0" y="0" width="4" height="2" fill="#CC6D51" transform="rotate(328, 487.5, 487.5) translate(806.0, 487.5)"/>
<rect x="0" y="0" width="4" height="2" fill="#CC6D51" transform="rotate(330, 487.5, 487.5) translate(806.0, 487.5)"/>
<rect x="0" y="0" width="4" height="2" fill="#CC6D51" transform="rotate(332, 487.5, 487.5) translate(806.0, 487.5)"/>
<rect x="0" y="0" width="4" height="2" fill="#CC6D51" transform="rotate(334, 487.5, 487.5) translate(806.0, 487.5)"/>
<rect x="0" y="0" width="4" height="2" fill="#CC6D51" transform="rotate(336, 487.5, 487.5) translate(806.0, 487.5)"/>
<rect x="0" y="0" width="4" height="2" fill="#CC6D51" transform="rotate(338, 487.5, 487.5) translate(806.0, 487.5)"/>
<rect x="0" y="0" width="4" height="2" fill="#CC6D51" transform="rotate(340, 487.5, 487.5) translate(806.0, 487.5)"/>
<rect x="0" y="0" width="4" height="2" fill="#CC6D51" transform="rotate(342, 487.5, 487.5) translate(806.0, 487.5)"/>
<rect x="0" y="0" width="4" height="2" fill="#CC6D51" transform="rotate(344, 487.5, 487.5) translate(806.0, 487.5)"/>
<rect x="0" y="0" width="4" height="2" fill="#CC6D51" transform="rotate(346, 487.5, 487.5) translate(806.0, 487.5)"/>
<rect x="0" y="0" width="4" height="2" fill="#CC6D51" transform="rotate(348, 487.5, 487.5) translate(806.0, 487.5)"/>
<rect x="0" y="0" width="4" height="2" fill="#CC6D51" transform="rotate(350, 487.5, 487.5) translate(806.0, 487.5)"/>
<rect x="0" y="0" width="4" height="2" fill="#CC6D51" transform="rotate(352, 487.5, 487.5) translate(806.0, 487.5)"/>
<rect x="0" y="0" width="4" height="2" fill="#CC6D51" transform="rotate(354, 487.5, 487.5) translate(806.0, 487.5)"/>
<rect x="0" y="0" width="4" height="2" fill="#CC6D51" transform="rotate(356, 487.5, 487.5) translate(806.0, 487.5)"/>
<rect x="0" y="0" width="4" height="2" fill="#CC6D51" transform="rotate(358, 487.5, 487.5) translate(806.0, 487.5)"/>
<circle cx="487.5" cy="487.5" r="252.5" stroke="#CC6D51" fill="none" stroke-width="2px"/>
<circle cx="487.5" cy="487.5" r="172.5" stroke="#CC6D51" fill="none" stroke-width="2px"/>
<line x1="165.0" y1="486.5" x2="487.5" y2="487.5" stroke="#3B3A39" stroke-width="2" stroke-dasharray="10 5 4" transform="rotate(0, 487.5, 487.5)"/>
<line x1="165.0" y1="486.5" x2="487.5" y2="487.5" stroke="#3B3A39" stroke-width="2" stroke-dasharray="10 5 4" transform="rotate(30, 487.5, 487.5)"/>
<line x1="165.0" y1="486.5" x2="487.5" y2="487.5" stroke="#3B3A39" stroke-width="2" stroke-dasharray="10 5 4" transform="rotate(60, 487.5, 487.5)"/>
<line x1="165.0" y1="486.5" x2="487.5" y2="487.5" stroke="#3B3A39" stroke-width="2" stroke-dasharray="10 5 4" transform="rotate(90, 487.5, 487.5)"/>
<line x1="165.0" y1="486.5" x2="487.5" y2="487.5" stroke="#3B3A39" stroke-width="2" stroke-dasharray="10 5 4" transform="rotate(120, 487.5, 487.5)"/>
<line x1="165.0" y1="486.5" x2="487.5" y2="487.5" stroke="#3B3A39" stroke-width="2" stroke-dasharray="10 5 4" transform="rotate(150, 487.5, 487.5)"/>
<line x1="165.0" y1="486.5" x2="487.5" y2="487.5" stroke="#3B3A39" stroke-width="2" stroke-dasharray="10 5 4" transform="rotate(180, 487.5, 487.5)"/>
<line x1="165.0" y1="486.5" x2="487.5" y2="487.5" stroke="#3B3A39" stroke-width="2" stroke-dasharray="10 5 4" transform="rotate(210, 487.5, 487.5)"/>
<line x1="165.0" y1="486.5" x2="487.5" y2="487.5" stroke="#3B3A39" stroke-width="2" stroke-dasharray="10 5 4" transform="rotate(240, 487.5, 487.5)"/>
<line x1="165.0" y1="486.5" x2="487.5" y2="487.5" stroke="#3B3A39" stroke-width="2" stroke-dasharray="10 5 4" transform="rotate(270, 487.5, 487.5)"/>
<line x1="165.0" y1="486.5" x2="487.5" y2="487.5" stroke="#3B3A39" stroke-width="2" stroke-dasharray="10 5 4" transform="rotate(300, 487.5, 487.5)"/>
<line x1="165.0" y1="486.5" x2="487.5" y2="487.5" stroke="#3B3A39" stroke-width="2" stroke-dasharray="10 5 4" transform="rotate(330, 487.5, 487.5)"/>
<rect x="0" y="0" width="40.0" height="2" fill="#CC6D51" transform="rotate(0, 487.5, 487.5)     translate(850.0, 487.5) "/>
<rect x="0" y="0" width="40.0" height="2" fill="#CC6D51" transform="rotate(10, 487.5, 487.5)     translate(850.0, 487.5) "/>
<rect x="0" y="0" width="40.0" height="2" fill="#CC6D51" transform="rotate(20, 487.5, 487.5)     translate(850.0, 487.5) "/>
<rect x="0" y="0" width="40.0" height="2" fill="#CC6D51" transform="rotate(30, 487.5, 487.5)     translate(850.0, 487.5) "/>
<rect x="0" y="0" width="40.0" height="2" fill="#CC6D51" transform="rotate(40, 487.5, 487.5)     translate(850.0, 487.5) "/>
<rect x="0" y="0" width="40.0" height="2" fill="#CC6D51" transform="rotate(50, 487.5, 487.5)     translate(850.0, 487.5) "/>
<rect x="0" y="0" width="40.0" height="2" fill="#CC6D51" transform="rotate(60, 487.5, 487.5)     translate(850.0, 487.5) "/>
<rect x="0" y="0" width="40.0" height="2" fill="#CC6D51" transform="rotate(70, 487.5, 487.5)     translate(850.0, 487.5) "/>
<rect x="0" y="0" width="40.0" height="2" fill="#CC6D51" transform="rotate(80, 487.5, 487.5)     translate(850.0, 487.5) "/>
<rect x="0" y="0" width="40.0" height="2" fill="#CC6D51" transform="rotate(90, 487.5, 487.5)     translate(850.0, 487.5) "/>
<rect x="0" y="0" width="40.0" height="2" fill="#CC6D51" transform="rotate(100, 487.5, 487.5)     translate(850.0, 487.5) "/>
<rect x="0" y="0" width="40.0" height="2" fill="#CC6D51" transform="rotate(110, 487.5, 487.5)     translate(850.0, 487.5) "/>
<rect x="0" y="0" width="40.0" height="2" fill="#CC6D51" transform="rotate(120, 487.5, 487.5)     translate(850.0, 487.5) "/>
<rect x="0" y="0" width="40.0" height="2" fill="#CC6D51" transform="rotate(130, 487.5, 487.5)     translate(850.0, 487.5) "/>
<rect x="0" y="0" width="40.0" height="2" fill="#CC6D51" transform="rotate(140, 487.5, 487.5)     translate(850.0, 487.5) "/>
<rect x="0" y="0" width="40.0" height="2" fill="#CC6D51" transform="rotate(150, 487.5, 487.5)     translate(850.0, 487.5) "/>
<rect x="0" y="0" width="40.0" height="2" fill="#CC6D51" transform="rotate(160, 487.5, 487.5)     translate(850.0, 487.5) "/>
<rect x="0" y="0" width="40.0" height="2" fill="#CC6D51" transform="rotate(170, 487.5, 487.5)     translate(850.0, 487.5) "/>
<rect x="0" y="0" width="40.0" height="2" fill="#CC6D51" transform="rotate(180, 487.5, 487.5)     translate(850.0, 487.5) "/>
<rect x="0" y="0" width="40.0" height="2" fill="#CC6D51" transform="rotate(190, 487.5, 487.5)     translate(850.0, 487.5) "/>
<rect x="0" y="0" width="40.0" height="2" fill="#CC6D51" transform="rotate(200, 487.5, 487.5)     translate(850.0, 487.5) "/>
<rect x="0" y="0" width="40.0" height="2" fill="#CC6D51" transform="rotate(210, 487.5, 487.5)     translate(850.0, 487.5) "/>
<rect x="0" y="0" width="40.0" height="2" fill="#CC6D51" transform="rotate(220, 487.5, 487.5)     translate(850.0, 487.5) "/>
<rect x="0" y="0" width="40.0" height="2" fill="#CC6D51" transform="rotate(230, 487.5, 487.5)     translate(850.0, 487.5) "/>
<rect x="0" y="0" width="40.0" height="2" fill="#CC6D51" transform="rotate(240, 487.5, 487.5)     translate(850.0, 487.5) "/>
<rect x="0" y="0" width="40.0" height="2" fill="#CC6D51" transform="rotate(250, 487.5, 487.5)     translate(850.0, 487.5) "/>
<rect x="0" y="0" width="40.0" height="2" fill="#CC6D51" transform="rotate(260, 487.5, 487.5)     translate(850.0, 487.5) "/>
<rect x="0" y="0" width="40.0" height="2" fill="#CC6D51" transform="rotate(270, 487.5, 487.5)     translate(850.0, 487.5) "/>
<rect x="0" y="0" width="40.0" height="2" fill="#CC6D51" transform="rotate(280, 487.5, 487.5)     translate(850.0, 487.5) "/>
<rect x="0" y="0" width="40.0" height="2" fill="#CC6D51" transform="rotate(290, 487.5, 487.5)     translate(850.0, 487.5) "/>
<rect x="0" y="0" width="40.0" height="2" fill="#CC6D51" transform="rotate(300, 487.5, 487.5)     translate(850.0, 487.5) "/>
<rect x="0" y="0" width="40.0" height="2" fill="#CC6D51" transform="rotate(310, 487.5, 487.5)     translate(850.0, 487.5) "/>
<rect x="0" y="0" width="40.0" height="2" fill="#CC6D51" transform="rotate(320, 487.5, 487.5)     translate(850.0, 487.5) "/>
<rect x="0" y="0" width="40.0" height="2" fill="#CC6D51" transform="rotate(330, 487.5, 487.5)     translate(850.0, 487.5) "/>
<rect x="0" y="0" width="40.0" height="2" fill="#CC6D51" transform="rotate(340, 487.5, 487.5)     translate(850.0, 487.5) "/>
<rect x="0" y="0" width="40.0" height="2" fill="#CC6D51" transform="rotate(350, 487.5, 487.5)     translate(850.0, 487.5) "/>
<image x="0" y="0" width="31.553784860557766" height="30.0" href="Aries.svg" transform="translate(471.7231075697211, 50.0) rotate(345, 15.776892430278883, 437.5)"/>
<image x="0" y="0" width="30.0" height="30.0" href="Mars.svg" transform="translate(472.5, 90.0) rotate(355, 15.0, 397.5)"/>
<image x="0" y="0" width="30.0" height="30.0" href="Sun.svg" transform="translate(472.5, 90.0) rotate(345, 15.0, 397.5)"/>
<image x="0" y="0" width="28.499999999999996" height="28.5" href="Venus.svg" transform="translate(473.25, 90.75) rotate(335, 14.249999999999998, 396.75)"/>
<rect x="0" y="0" width="40.0" height="2" fill="#CC6D51" transform="rotate(270, 487.5, 487.5) translate(810.0, 487.5) "/>
<rect x="0" y="0" width="40.0" height="2" fill="#CC6D51" transform="rotate(264, 487.5, 487.5) translate(810.0, 487.5) "/>
<rect x="0" y="0" width="40.0" height="2" fill="#CC6D51" transform="rotate(258, 487.5, 487.5) translate(810.0, 487.5) "/>
<rect x="0" y="0" width="40.0" height="2" fill="#CC6D51" transform="rotate(250, 487.5, 487.5) translate(810.0, 487.5) "/>
<rect x="0" y="0" width="40.0" height="2" fill="#CC6D51" transform="rotate(245, 487.5, 487.5) translate(810.0, 487.5) "/>
<rect x="0" y="0" width="40.0" height="2" fill="#CC6D51" transform="rotate(240, 487.5, 487.5) translate(810.0, 487.5) "/>
<image x="0" y="0" width="20.0" height="20.0" href="Jupiter.svg" transform="translate(477.5, 135.0) rotate(357, 10.0, 352.5)"/>
<image x="0" y="0" width="19.0" height="19.0" href="Venus.svg" transform="translate(478.0, 135.5) rotate(351, 9.5, 352.0)"/>
<image x="0" y="0" width="20.0" height="20.0" href="Mercury.svg" transform="translate(477.5, 135.0) rotate(344, 10.0, 352.5)"/>
<image x="0" y="0" width="20.0" height="20.0" href="Mars.svg" transform="translate(477.5, 135.0) rotate(337.5, 10.0, 352.5)"/>
<image x="0" y="0" width="21.999999999999996" height="22.0" href="Saturn.svg" transform="translate(476.5, 134.0) rotate(332.5, 10.999999999999998, 353.5)"/>
<image x="0" y="0" width="28.685258964143426" height="30.0" href="Taurus.svg" transform="translate(474.1573705179283, 50.0) rotate(315, 14.342629482071713, 437.5)"/>
<image x="0" y="0" width="30.0" height="30.0" href="Mercury.svg" transform="translate(472.5, 90.0) rotate(325, 15.0, 397.5)"/>
<image x="0" y="0" width="24.0" height="24.0" href="Moon.svg" transform="translate(475.5, 93.0) rotate(315, 12.0, 394.5)"/>
<image x="0" y="0" width="33.0" height="33.0" href="Saturn.svg" transform="translate(471.0, 88.5) rotate(305, 16.5, 399.0)"/>
<rect x="0" y="0" width="40.0" height="2" fill="#CC6D51" transform="rotate(240, 487.5, 487.5) translate(810.0, 487.5) "/>
<rect x="0" y="0" width="40.0" height="2" fill="#CC6D51" transform="rotate(232, 487.5, 487.5) translate(810.0, 487.5) "/>
<rect x="0" y="0" width="40.0" height="2" fill="#CC6D51" transform="rotate(226, 487.5, 487.5) translate(810.0, 487.5) "/>
<rect x="0" y="0" width="40.0" height="2" fill="#CC6D51" transform="rotate(218, 487.5, 487.5) translate(810.0, 487.5) "/>
<rect x="0" y="0" width="40.0" height="2" fill="#CC6D51" transform="rotate(213, 487.5, 487.5) translate(810.0, 487.5) "/>
<rect x="0" y="0" width="40.0" height="2" fill="#CC6D51" transform="rotate(210, 487.5, 487.5) translate(810.0, 487.5) "/>
<image x="0" y="0" width="19.0" height="19.0" href="Venus.svg" transform="translate(478.0, 135.5) rotate(326, 9.5, 352.0)"/>
<image x="0" y="0" width="20.0" height="20.0" href="Mercury.svg" transform="translate(477.5, 135.0) rotate(319, 10.0, 352.5)"/>
<image x="0" y="0" width="20.0" height="20.0" href="Jupiter.svg" transform="translate(477.5, 135.0) rotate(312, 10.0, 352.5)"/>
<image x="0" y="0" width="20.0" height="20.0" href="Mars.svg" transform="translate(477.5, 135.0) rotate(305.5, 10.0, 352.5)"/>
<image x="0" y="0" width="21.999999999999996" height="22.0" href="Saturn.svg" transform="translate(476.5, 134.0) rotate(301.5, 10.999999999999998, 353.5)"/>
<image x="0" y="0" width="29.163346613545816" height="29.999999999999996" href="Gemini.svg" transform="translate(472.9183266932271, 50.0) rotate(285, 14.581673306772908, 437.5)"/>
<image x="0" y="0" width="29.999999999999996" height="29.999999999999996" href="Jupiter.svg" transform="translate(472.5, 90.0) rotate(295, 14.999999999999998, 397.5)"/>
<image x="0" y="0" width="29.999999999999996" height="29.999999999999996" href="Mars.svg" transform="translate(472.5, 90.0) rotate(285, 14.999999999999998, 397.5)"/>
<image x="0" y="0" width="29.999999999999996" height="29.999999999999996" href="Sun.svg" transform="translate(472.5, 90.0) rotate(275, 14.999999999999998, 397.5)"/>
<rect x="0" y="0" width="40.0" height="2" fill="#CC6D51" transform="rotate(210, 487.5, 487.5) translate(810.0, 487.5) "/>
<rect x="0" y="0" width="40.0" height="2" fill="#CC6D51" transform="rotate(204, 487.5, 487.5) translate(810.0, 487.5) "/>
<rect x="0" y="0" width="40.0" height="2" fill="#CC6D51" transform="rotate(198, 487.5, 487.5) translate(810.0, 487.5) "/>
<rect x="0" y="0" width="40.0" height="2" fill="#CC6D51" transform="rotate(193, 487.5, 487.5) translate(810.0, 487.5) "/>
<rect x="0" y="0" width="40.0" height="2" fill="#CC6D51" transform="rotate(186, 487.5, 487.5) translate(810.0, 487.5) "/>
<rect x="0" y="0" width="40.0" height="2" fill="#CC6D51" transform="rotate(180, 487.5, 487.5) translate(810.0, 487.5) "/>
<image x="0" y="0" width="20.0" height="20.0" href="Mercury.svg" transform="translate(477.5, 135.0) rotate(297, 10.0, 352.5)"/>
<image x="0" y="0" width="20.0" height="20.0" href="Jupiter.svg" transform="translate(477.5, 135.0) rotate(291, 10.0, 352.5)"/>
<image x="0" y="0" width="19.0" height="19.0" href="Venus.svg" transform="translate(478.0, 135.5) rotate(285.5, 9.5, 352.0)"/>
<image x="0" y="0" width="20.0" height="20.0" href="Mars.svg" transform="translate(477.5, 135.0) rotate(279.5, 10.0, 352.5)"/>
<image x="0" y="0" width="21.999999999999996" height="22.0" href="Saturn.svg" transform="translate(476.5, 134.0) rotate(273, 10.999999999999998, 353.5)"/>
<image x="0" y="0" width="38.29787234042553" height="29.999999999999996" href="Cancer.svg" transform="translate(468.3510638297872, 50.0) rotate(255, 19.148936170212764, 437.5)"/>
<image x="0" y="0" width="28.499999999999996" height="28.499999999999996" href="Venus.svg" transform="translate(473.25, 90.75) rotate(265, 14.249999999999998, 396.75)"/>
<image x="0" y="0" width="29.999999999999996" height="29.999999999999996" href="Mercury.svg" transform="translate(472.5, 90.0) rotate(255, 14.999999999999998, 397.5)"/>
<image x="0" y="0" width="24.0" height="24.0" href="Moon.svg" transform="translate(475.5, 93.0) rotate(245, 12.0, 394.5)"/>
<rect x="0" y="0" width="40.0" height="2" fill="#CC6D51" transform="rotate(180, 487.5, 487.5) translate(810.0, 487.5) "/>
<rect x="0" y="0" width="40.0" height="2" fill="#CC6D51" transform="rotate(173, 487.5, 487.5) translate(810.0, 487.5) "/>
<rect x="0" y="0" width="40.0" height="2" fill="#CC6D51" transform="rotate(167, 487.5, 487.5) translate(810.0, 487.5) "/>
<rect x="0" y="0" width="40.0" height="2" fill="#CC6D51" transform="rotate(162, 487.5, 487.5) translate(810.0, 487.5) "/>
<rect x="0" y="0" width="40.0" height="2" fill="#CC6D51" transform="rotate(154, 487.5, 487.5) translate(810.0, 487.5) "/>
<rect x="0" y="0" width="40.0" height="2" fill="#CC6D51" transform="rotate(150, 487.5, 487.5) translate(810.0, 487.5) "/>
<image x="0" y="0" width="20.0" height="20.0" href="Mars.svg" transform="translate(477.5, 135.0) rotate(266.5, 10.0, 352.5)"/>
<image x="0" y="0" width="19.0" height="19.0" href="Venus.svg" transform="translate(478.0, 135.5) rotate(260, 9.5, 352.0)"/>
<image x="0" y="0" width="20.0" height="20.0" href="Mercury.svg" transform="translate(477.5, 135.0) rotate(254.5, 10.0, 352.5)"/>
<image x="0" y="0" width="20.0" height="20.0" href="Jupiter.svg" transform="translate(477.5, 135.0) rotate(248, 10.0, 352.5)"/>
<image x="0" y="0" width="21.999999999999996" height="22.0" href="Saturn.svg" transform="translate(476.5, 134.0) rotate(242, 10.999999999999998, 353.5)"/>
<image x="0" y="0" width="22.5" height="30.0" href="Leo.svg" transform="translate(476.25, 50.0) rotate(225, 11.25, 437.5)"/>
<image x="0" y="0" width="33.0" height="33.0" href="Saturn.svg" transform="translate(471.0, 88.5) rotate(235, 16.5, 399.0)"/>
<image x="0" y="0" width="29.999999999999996" height="29.999999999999996" href="Jupiter.svg" transform="translate(472.5, 90.0) rotate(225, 14.999999999999998, 397.5)"/>
<image x="0" y="0" width="29.999999999999996" height="29.999999999999996" href="Mars.svg" transform="translate(472.5, 90.0) rotate(215, 14.999999999999998, 397.5)"/>
<rect x="0" y="0" width="40.0" height="2" fill="#CC6D51" transform="rotate(150, 487.5, 487.5) translate(810.0, 487.5) "/>
<rect x="0" y="0" width="40.0" height="2" fill="#CC6D51" transform="rotate(144, 487.5, 487.5) translate(810.0, 487.5) "/>
<rect x="0" y="0" width="40.0" height="2" fill="#CC6D51" transform="rotate(139, 487.5, 487.5) translate(810.0, 487.5) "/>
<rect x="0" y="0" width="40.0" height="2" fill="#CC6D51" transform="rotate(132, 487.5, 487.5) translate(810.0, 487.5) "/>
<rect x="0" y="0" width="40.0" height="2" fill="#CC6D51" transform="rotate(126, 487.5, 487.5) translate(810.0, 487.5) "/>
<rect x="0" y="0" width="40.0" height="2" fill="#CC6D51" transform="rotate(120, 487.5, 487.5) translate(810.0, 487.5) "/>
<image x="0" y="0" width="20.0" height="20.0" href="Jupiter.svg" transform="translate(477.5, 135.0) rotate(237, 10.0, 352.5)"/>
<image x="0" y="0" width="19.0" height="19.0" href="Venus.svg" transform="translate(478.0, 135.5) rotate(231.5, 9.5, 352.0)"/>
<image x="0" y="0" width="21.999999999999996" height="22.0" href="Saturn.svg" transform="translate(476.5, 134.0) rotate(225.5, 10.999999999999998, 353.5)"/>
<image x="0" y="0" width="20.0" height="20.0" href="Mercury.svg" transform="translate(477.5, 135.0) rotate(219, 10.0, 352.5)"/>
<image x="0" y="0" width="20.0" height="20.0" href="Mars.svg" transform="translate(477.5, 135.0) rotate(213, 10.0, 352.5)"/>
<image x="0" y="0" width="24.741035856573703" height="29.999999999999996" href="Virgo.svg" transform="translate(475.12948207171314, 50.0) rotate(195, 12.370517928286851, 437.5)"/>
<image x="0" y="0" width="29.999999999999996" height="29.999999999999996" href="Sun.svg" transform="translate(472.5, 90.0) rotate(205, 14.999999999999998, 397.5)"/>
<image x="0" y="0" width="28.499999999999996" height="28.499999999999996" href="Venus.svg" transform="translate(473.25, 90.75) rotate(195, 14.249999999999998, 396.75)"/>
<image x="0" y="0" width="29.999999999999996" height="29.999999999999996" href="Mercury.svg" transform="translate(472.5, 90.0) rotate(185, 14.999999999999998, 397.5)"/>
<rect x="0" y="0" width="40.0" height="2" fill="#CC6D51" transform="rotate(120, 487.5, 487.5) translate(810.0, 487.5) "/>
<rect x="0" y="0" width="40.0" height="2" fill="#CC6D51" transform="rotate(113, 487.5, 487.5) translate(810.0, 487.5) "/>
<rect x="0" y="0" width="40.0" height="2" fill="#CC6D51" transform="rotate(103, 487.5, 487.5) translate(810.0, 487.5) "/>
<rect x="0" y="0" width="40.0" height="2" fill="#CC6D51" transform="rotate(99, 487.5, 487.5) translate(810.0, 487.5) "/>
<rect x="0" y="0" width="40.0" height="2" fill="#CC6D51" transform="rotate(92, 487.5, 487.5) translate(810.0, 487.5) "/>
<rect x="0" y="0" width="40.0" height="2" fill="#CC6D51" transform="rotate(90, 487.5, 487.5) translate(810.0, 487.5) "/>
<image x="0" y="0" width="20.0" height="20.0" href="Mercury.svg" transform="translate(477.5, 135.0) rotate(206.5, 10.0, 352.5)"/>
<image x="0" y="0" width="19.0" height="19.0" href="Venus.svg" transform="translate(478.0, 135.5) rotate(198, 9.5, 352.0)"/>
<image x="0" y="0" width="20.0" height="20.0" href="Jupiter.svg" transform="translate(477.5, 135.0) rotate(191, 10.0, 352.5)"/>
<image x="0" y="0" width="20.0" height="20.0" href="Mars.svg" transform="translate(477.5, 135.0) rotate(185.5, 10.0, 352.5)"/>
<image x="0" y="0" width="21.999999999999996" height="22.0" href="Saturn.svg" transform="translate(476.5, 134.0) rotate(181, 10.999999999999998, 353.5)"/>
<image x="0" y="0" width="27.250996015936252" height="29.999999999999996" href="Libra.svg" transform="translate(473.87450199203187, 50.0) rotate(165, 13.625498007968126, 437.5)"/>
<image x="0" y="0" width="24.0" height="24.0" href="Moon.svg" transform="translate(475.5, 93.0) rotate(175, 12.0, 394.5)"/>
<image x="0" y="0" width="33.0" height="33.0" href="Saturn.svg" transform="translate(471.0, 88.5) rotate(165, 16.5, 399.0)"/>
<image x="0" y="0" width="29.999999999999996" height="29.999999999999996" href="Jupiter.svg" transform="translate(472.5, 90.0) rotate(155, 14.999999999999998, 397.5)"/>
<rect x="0" y="0" width="40.0" height="2" fill="#CC6D51" transform="rotate(90, 487.5, 487.5) translate(810.0, 487.5) "/>
<rect x="0" y="0" width="40.0" height="2" fill="#CC6D51" transform="rotate(84, 487.5, 487.5) translate(810.0, 487.5) "/>
<rect x="0" y="0" width="40.0" height="2" fill="#CC6D51" transform="rotate(76, 487.5, 487.5) translate(810.0, 487.5) "/>
<rect x="0" y="0" width="40.0" height="2" fill="#CC6D51" transform="rotate(69, 487.5, 487.5) translate(810.0, 487.5) "/>
<rect x="0" y="0" width="40.0" height="2" fill="#CC6D51" transform="rotate(62, 487.5, 487.5) translate(810.0, 487.5) "/>
<rect x="0" y="0" width="40.0" height="2" fill="#CC6D51" transform="rotate(60, 487.5, 487.5) translate(810.0, 487.5) "/>
<image x="0" y="0" width="21.999999999999996" height="22.0" href="Saturn.svg" transform="translate(476.5, 134.0) rotate(177, 10.999999999999998, 353.5)"/>
<image x="0" y="0" width="20.0" height="20.0" href="Mercury.svg" transform="translate(477.5, 135.0) rotate(170, 10.0, 352.5)"/>
<image x="0" y="0" width="20.0" height="20.0" href="Jupiter.svg" transform="translate(477.5, 135.0) rotate(162.5, 10.0, 352.5)"/>
<image x="0" y="0" width="19.0" height="19.0" href="Venus.svg" transform="translate(478.0, 135.5) rotate(155.5, 9.5, 352.0)"/>
<image x="0" y="0" width="20.0" height="20.0" href="Mars.svg" transform="translate(477.5, 135.0) rotate(151, 10.0, 352.5)"/>
<image x="0" y="0" width="51.063829787" height="29.999999999999996" href="Scorpio.svg" transform="translate(461.9680851065, 50.0) rotate(135, 25.5319148935, 437.5)"/>
<image x="0" y="0" width="29.999999999999996" height="29.999999999999996" href="Mars.svg" transform="translate(472.5, 90.0) rotate(145, 14.999999999999998, 397.5)"/>
<image x="0" y="0" width="29.999999999999996" height="29.999999999999996" href="Sun.svg" transform="translate(472.5, 90.0) rotate(135, 14.999999999999998, 397.5)"/>
<image x="0" y="0" width="28.499999999999996" height="28.499999999999996" href="Venus.svg" transform="translate(473.25, 90.75) rotate(125, 14.249999999999998, 396.75)"/>
<rect x="0" y="0" width="40.0" height="2" fill="#CC6D51" transform="rotate(60, 487.5, 487.5) translate(810.0, 487.5) "/>
<rect x="0" y="0" width="40.0" height="2" fill="#CC6D51" transform="rotate(53, 487.5, 487.5) translate(810.0, 487.5) "/>
<rect x="0" y="0" width="40.0" height="2" fill="#CC6D51" transform="rotate(49, 487.5, 487.5) translate(810.0, 487.5) "/>
<rect x="0" y="0" width="40.0" height="2" fill="#CC6D51" transform="rotate(41, 487.5, 487.5) translate(810.0, 487.5) "/>
<rect x="0" y="0" width="40.0" height="2" fill="#CC6D51" transform="rotate(36, 487.5, 487.5) translate(810.0, 487.5) "/>
<rect x="0" y="0" width="40.0" height="2" fill="#CC6D51" transform="rotate(30, 487.5, 487.5) translate(810.0, 487.5) "/>
<image x="0" y="0" width="20.0" height="20.0" href="Mars.svg" transform="translate(477.5, 135.0) rotate(146.5, 10.0, 352.5)"/>
<image x="0" y="0" width="19.0" height="19.0" href="Venus.svg" transform="translate(478.0, 135.5) rotate(141.5, 9.5, 352.0)"/>
<image x="0" y="0" width="20.0" height="20.0" href="Mercury.svg" transform="translate(477.5, 135.0) rotate(135, 10.0, 352.5)"/>
<image x="0" y="0" width="20.0" height="20.0" href="Jupiter.svg" transform="translate(477.5, 135.0) rotate(128.5, 10.0, 352.5)"/>
<image x="0" y="0" width="21.999999999999996" height="22.0" href="Saturn.svg" transform="translate(476.5, 134.0) rotate(123, 10.999999999999998, 353.5)"/>
<image x="0" y="0" width="29.999999999999996" height="29.999999999999996" href="Sagittarius.svg" transform="translate(472.5, 50.0) rotate(105, 14.999999999999998, 437.5)"/>
<image x="0" y="0" width="29.999999999999996" height="29.999999999999996" href="Mercury.svg" transform="translate(472.5, 90.0) rotate(115, 14.999999999999998, 397.5)"/>
<image x="0" y="0" width="24.0" height="24.0" href="Moon.svg" transform="translate(475.5, 93.0) rotate(105, 12.0, 394.5)"/>
<image x="0" y="0" width="33.0" height="33.0" href="Saturn.svg" transform="translate(471.0, 88.5) rotate(95, 16.5, 399.0)"/>
<rect x="0" y="0" width="40.0" height="2" fill="#CC6D51" transform="rotate(30, 487.5, 487.5) translate(810.0, 487.5) "/>
<rect x="0" y="0" width="40.0" height="2" fill="#CC6D51" transform="rotate(18, 487.5, 487.5) translate(810.0, 487.5) "/>
<rect x="0" y="0" width="40.0" height="2" fill="#CC6D51" transform="rotate(13, 487.5, 487.5) translate(810.0, 487.5) "/>
<rect x="0" y="0" width="40.0" height="2" fill="#CC6D51" transform="rotate(9, 487.5, 487.5) translate(810.0, 487.5) "/>
<rect x="0" y="0" width="40.0" height="2" fill="#CC6D51" transform="rotate(4, 487.5, 487.5) translate(810.0, 487.5) "/>
<rect x="0" y="0" width="40.0" height="2" fill="#CC6D51" transform="rotate(0, 487.5, 487.5) translate(810.0, 487.5) "/>
<image x="0" y="0" width="20.0" height="20.0" href="Jupiter.svg" transform="translate(477.5, 135.0) rotate(114, 10.0, 352.5)"/>
<image x="0" y="0" width="19.0" height="19.0" href="Venus.svg" transform="translate(478.0, 135.5) rotate(105.5, 9.5, 352.0)"/>
<image x="0" y="0" width="20.0" height="20.0" href="Mercury.svg" transform="translate(477.5, 135.0) rotate(101, 10.0, 352.5)"/>
<image x="0" y="0" width="20.0" height="20.0" href="Mars.svg" transform="translate(477.5, 135.0) rotate(96.5, 10.0, 352.5)"/>
<image x="0" y="0" width="21.999999999999996" height="22.0" href="Saturn.svg" transform="translate(476.5, 134.0) rotate(92, 10.999999999999998, 353.5)"/>
<image x="0" y="0" width="31.43426294820717" height="29.999999999999996" href="Capricorn.svg" transform="translate(471.7828685258964, 50.0) rotate(75, 15.717131474103585, 437.5)"/>
<image x="0" y="0" width="29.999999999999996" height="29.999999999999996" href="Jupiter.svg" transform="translate(472.5, 90.0) rotate(85, 14.999999999999998, 397.5)"/>
<image x="0" y="0" width="29.999999999999996" height="29.999999999999996" href="Mars.svg" transform="translate(472.5, 90.0) rotate(75, 14.999999999999998, 397.5)"/>
<image x="0" y="0" width="29.999999999999996" height="29.999999999999996" href="Sun.svg" transform="translate(472.5, 90.0) rotate(65, 14.999999999999998, 397.5)"/>
<rect x="0" y="0" width="40.0" height="2" fill="#CC6D51" transform="rotate(0, 487.5, 487.5) translate(810.0, 487.5) "/>
<rect x="0" y="0" width="40.0" height="2" fill="#CC6D51" transform="rotate(-7, 487.5, 487.5) translate(810.0, 487.5) "/>
<rect x="0" y="0" width="40.0" height="2" fill="#CC6D51" transform="rotate(-14, 487.5, 487.5) translate(810.0, 487.5) "/>
<rect x="0" y="0" width="40.0" height="2" fill="#CC6D51" transform="rotate(-22, 487.5, 487.5) translate(810.0, 487.5) "/>
<rect x="0" y="0" width="40.0" height="2" fill="#CC6D51" transform="rotate(-26, 487.5, 487.5) translate(810.0, 487.5) "/>
<rect x="0" y="0" width="40.0" height="2" fill="#CC6D51" transform="rotate(-30, 487.5, 487.5) translate(810.0, 487.5) "/>
<image x="0" y="0" width="20.0" height="20.0" href="Mercury.svg" transform="translate(477.5, 135.0) rotate(87, 10.0, 352.5)"/>
<image x="0" y="0" width="20.0" height="20.0" href="Jupiter.svg" transform="translate(477.5, 135.0) rotate(79.5, 10.0, 352.5)"/>
<image x="0" y="0" width="19.0" height="19.0" href="Venus.svg" transform="translate(478.0, 135.5) rotate(72, 9.5, 352.0)"/>
<image x="0" y="0" width="21.999999999999996" height="22.0" href="Saturn.svg" transform="translate(476.5, 134.0) rotate(66, 10.999999999999998, 353.5)"/>
<image x="0" y="0" width="20.0" height="20.0" href="Mars.svg" transform="translate(477.5, 135.0) rotate(62, 10.0, 352.5)"/>
<image x="0" y="0" width="44.581673306772906" height="29.999999999999996" href="Aquarius.svg" transform="translate(465.20916334661354, 50.0) rotate(45, 22.290836653386453, 437.5)"/>
<image x="0" y="0" width="28.499999999999996" height="28.499999999999996" href="Venus.svg" transform="translate(473.25, 90.75) rotate(55, 14.249999999999998, 396.75)"/>
<image x="0" y="0" width="29.999999999999996" height="29.999999999999996" href="Mercury.svg" transform="translate(472.5, 90.0) rotate(45, 14.999999999999998, 397.5)"/>
<image x="0" y="0" width="24.0" height="24.0" href="Moon.svg" transform="translate(475.5, 93.0) rotate(35, 12.0, 394.5)"/>
<rect x="0" y="0" width="40.0" height="2" fill="#CC6D51" transform="rotate(330, 487.5, 487.5) translate(810.0, 487.5) "/>
<rect x="0" y="0" width="40.0" height="2" fill="#CC6D51" transform="rotate(323, 487.5, 487.5) translate(810.0, 487.5) "/>
<rect x="0" y="0" width="40.0" height="2" fill="#CC6D51" transform="rotate(317, 487.5, 487.5) translate(810.0, 487.5) "/>
<rect x="0" y="0" width="40.0" height="2" fill="#CC6D51" transform="rotate(310, 487.5, 487.5) translate(810.0, 487.5) "/>
<rect x="0" y="0" width="40.0" height="2" fill="#CC6D51" transform="rotate(305, 487.5, 487.5) translate(810.0, 487.5) "/>
<rect x="0" y="0" width="40.0" height="2" fill="#CC6D51" transform="rotate(300, 487.5, 487.5) translate(810.0, 487.5) "/>
<image x="0" y="0" width="20.0" height="20.0" href="Mercury.svg" transform="translate(477.5, 135.0) rotate(56.5, 10.0, 352.5)"/>
<image x="0" y="0" width="19.0" height="19.0" href="Venus.svg" transform="translate(478.0, 135.5) rotate(50, 9.5, 352.0)"/>
<image x="0" y="0" width="20.0" height="20.0" href="Jupiter.svg" transform="translate(477.5, 135.0) rotate(43.5, 10.0, 352.5)"/>
<image x="0" y="0" width="20.0" height="20.0" href="Mars.svg" transform="translate(477.5, 135.0) rotate(37.5, 10.0, 352.5)"/>
<image x="0" y="0" width="21.999999999999996" height="22.0" href="Saturn.svg" transform="translate(476.5, 134.0) rotate(32.5, 10.999999999999998, 353.5)"/>
<image x="0" y="0" width="24.143426294820717" height="30.0" href="Pisces.svg" transform="translate(475.4282868525896, 50.0) rotate(15, 12.071713147410359, 437.5)"/>
<image x="0" y="0" width="33.0" height="33.0" href="Saturn.svg" transform="translate(471.0, 88.5) rotate(25, 16.5, 399.0)"/>
<image x="0" y="0" width="29.999999999999996" height="29.999999999999996" href="Jupiter.svg" transform="translate(472.5, 90.0) rotate(15, 14.999999999999998, 397.5)"/>
<image x="0" y="0" width="29.999999999999996" height="29.999999999999996" href="Mars.svg" transform="translate(472.5, 90.0) rotate(5, 14.999999999999998, 397.5)"/>
<rect x="0" y="0" width="40.0" height="2" fill="#CC6D51" transform="rotate(300, 487.5, 487.5) translate(810.0, 487.5) "/>
<rect x="0" y="0" width="40.0" height="2" fill="#CC6D51" transform="rotate(288, 487.5, 487.5) translate(810.0, 487.5) "/>
<rect x="0" y="0" width="40.0" height="2" fill="#CC6D51" transform="rotate(284, 487.5, 487.5) translate(810.0, 487.5) "/>
<rect x="0" y="0" width="40.0" height="2" fill="#CC6D51" transform="rotate(281, 487.5, 487.5) translate(810.0, 487.5) "/>
<rect x="0" y="0" width="40.0" height="2" fill="#CC6D51" transform="rotate(272, 487.5, 487.5) translate(810.0, 487.5) "/>
<rect x="0" y="0" width="40.0" height="2" fill="#CC6D51" transform="rotate(270, 487.5, 487.5) translate(810.0, 487.5) "/>
<image x="0" y="0" width="19.0" height="19.0" href="Venus.svg" transform="translate(478.0, 135.5) rotate(24, 9.5, 352.0)"/>
<image x="0" y="0" width="20.0" height="20.0" href="Jupiter.svg" transform="translate(477.5, 135.0) rotate(16, 10.0, 352.5)"/>
<image x="0" y="0" width="20.0" height="20.0" href="Mercury.svg" transform="translate(477.5, 135.0) rotate(12.5, 10.0, 352.5)"/>
<image x="0" y="0" width="20.0" height="20.0" href="Mars.svg" transform="translate(477.5, 135.0) rotate(6.5, 10.0, 352.5)"/>
<image x="0" y="0" width="21.999999999999996" height="22.0" href="Saturn.svg" transform="translate(476.5, 134.0) rotate(1, 10.999999999999998, 353.5)"/>
<image x="0" y="0" width="20.0" height="20.0" href="Uranus.svg" transform="translate(477.5, 345.0)
                            rotate(120, 10.0, 142.5)
                            rotate(240)"/>
<image x="0" y="0" width="20.0" height="20.0" href="Mercury.svg" transform="translate(477.5, 365.0)
                            rotate(115, 10.0, 122.5)
                            rotate(245)"/>
<image x="0" y="0" width="20.0" height="20.0" href="Sun.svg" transform="translate(477.5, 345.0)
                            rotate(110, 10.0, 142.5)
                            rotate(250)"/>
<image x="0" y="0" width="20.0" height="20.0" href="Neptune.svg" transform="translate(477.5, 345.0)
                        rotate(100, 10.0, 142.5)
                        rotate(265)"/>
<image x="0" y="0" width="20.0" height="20.0" href="sn.svg" transform="translate(477.5, 345.0)
                            rotate(67, 10.0, 142.5)
                            rotate(293)"/>
<image x="0" y="0" width="20.0" height="20.0" href="Venus.svg" transform="translate(477.5, 345.0)
                        rotate(70, 10.0, 142.5)
                        rotate(295)"/>
<image x="0" y="0" width="20.0" height="20.0" href="asc.svg" transform="translate(477.5, 345.0)
                            rotate(178, 10.0, 142.5)
                            rotate(182)"/>
<image x="0" y="0" width="20.0" height="20.0" href="Saturn.svg" transform="translate(477.5, 365.0)
                            rotate(161, 10.0, 122.5)
                            rotate(199)"/>
<image x="0" y="0" width="20.0" height="20.0" href="Pluto.svg" transform="translate(477.5, 345.0)
                        rotate(160, 10.0, 142.5)
                        rotate(205)"/>
<image x="0" y="0" width="20.0" height="20.0" href="mc.svg" transform="translate(477.5, 345.0)
                            rotate(268, 10.0, 142.5)
                            rotate(92)"/>
<image x="0" y="0" width="20.0" height="20.0" href="nn.svg" transform="translate(477.5, 345.0)
                        rotate(247, 10.0, 142.5)
                        rotate(113)"/>

</svg>