<?xml version="1.0" encoding="UTF-8" standalone="no"?>
<!-- Created with Sodipodi ("http://www.sodipodi.com/") -->

<svg
   xml:space="preserve"
   width="225pt"
   height="188pt"
   style="shape-rendering:geometricPrecision; text-rendering:geometricPrecision; image-rendering:optimizeQuality; fill-rule:evenodd"
   viewBox="0 0 8268 11692"
   id="svg644"
   sodipodi:version="0.34"
   sodipodi:docname="Libra.svg"
   version="1.1"
   inkscape:version="1.1 (c4e8f9ed74, 2021-05-24)"
   xmlns:inkscape="http://www.inkscape.org/namespaces/inkscape"
   xmlns:sodipodi="http://sodipodi.sourceforge.net/DTD/sodipodi-0.dtd"
   xmlns="http://www.w3.org/2000/svg"
   xmlns:svg="http://www.w3.org/2000/svg"><sodipodi:namedview
     id="base"
     pagecolor="#ffffff"
     bordercolor="#cccccc"
     borderopacity="1"
     inkscape:pageshadow="0"
     inkscape:pageopacity="1"
     inkscape:pagecheckerboard="0"
     inkscape:document-units="pt"
     showgrid="false"
     inkscape:zoom="3.4029255"
     inkscape:cx="57.009769"
     inkscape:cy="125.33333"
     inkscape:window-width="1920"
     inkscape:window-height="1006"
     inkscape:window-x="0"
     inkscape:window-y="38"
     inkscape:window-maximized="1"
     inkscape:current-layer="svg644" /><defs
     id="defs645"><style
       type="text/css"
       id="style646"><![CDATA[
    .fil0 {fill:#000000}
   ]]></style></defs><g
     id="Layer 1"
     transform="matrix(6.484284,0,0,6.473976,-20499.79,-29016.36)"
     style="stroke:none;stroke-opacity:1;fill:#cfcfcf;fill-opacity:1"><path
       class="fil0"
       d="M2720 6288l0 -200 2158 0 0 200 -2158 0zm853 -789l0 187 -853 0 0 -201 598 0c-109,-111 -163,-236 -163,-374 0,-172 64,-319 191,-443 127,-124 278,-186 454,-186 175,0 326,62 453,186 128,124 191,271 191,443 0,138 -54,263 -163,374l597 0 0 201 -853 0 0 -187c145,-94 218,-220 218,-378 0,-120 -44,-222 -131,-308 -88,-87 -192,-130 -312,-130 -122,0 -226,43 -313,130 -87,86 -131,188 -131,308 0,158 72,284 217,378z"
       id="path648"
       style="stroke:none;stroke-opacity:1;fill:#cfcfcf;fill-opacity:1" /></g></svg>
