<?xml version="1.0" standalone="no"?>
<!DOCTYPE svg PUBLIC "-//W3C//DTD SVG 1.1//EN" "http://www.w3.org/Graphics/SVG/1.1/DTD/svg11.dtd">

<svg width="975" height="975" 
  xmlns="http://www.w3.org/2000/svg"
  xmlns:xlink="http://www.w3.org/1999/xlink">


<circle cx="487.5" cy="487.5" r="442.5" stroke="black" fill="none" stroke-width="2px"/>
<circle cx="487.5" cy="487.5" r="390.0" stroke="black" fill="none" stroke-width="2px"/>
<circle cx="487.5" cy="487.5" r="337.5" stroke="black" fill="none" stroke-width="2px"/>
<circle cx="487.5" cy="487.5" r="285.0" stroke="black" fill="none" stroke-width="2px"/>
<rect x="0" y="0" width="52.5" height="2" fill="black" transform="rotate(0, 487.5, 487.5) translate(877.5, 487.5)"/>
<rect x="0" y="0" width="52.5" height="2" fill="black" transform="rotate(30, 487.5, 487.5) translate(877.5, 487.5)"/>
<rect x="0" y="0" width="52.5" height="2" fill="black" transform="rotate(60, 487.5, 487.5) translate(877.5, 487.5)"/>
<rect x="0" y="0" width="52.5" height="2" fill="black" transform="rotate(90, 487.5, 487.5) translate(877.5, 487.5)"/>
<rect x="0" y="0" width="52.5" height="2" fill="black" transform="rotate(120, 487.5, 487.5) translate(877.5, 487.5)"/>
<rect x="0" y="0" width="52.5" height="2" fill="black" transform="rotate(150, 487.5, 487.5) translate(877.5, 487.5)"/>
<rect x="0" y="0" width="52.5" height="2" fill="black" transform="rotate(180, 487.5, 487.5) translate(877.5, 487.5)"/>
<rect x="0" y="0" width="52.5" height="2" fill="black" transform="rotate(210, 487.5, 487.5) translate(877.5, 487.5)"/>
<rect x="0" y="0" width="52.5" height="2" fill="black" transform="rotate(240, 487.5, 487.5) translate(877.5, 487.5)"/>
<rect x="0" y="0" width="52.5" height="2" fill="black" transform="rotate(270, 487.5, 487.5) translate(877.5, 487.5)"/>
<rect x="0" y="0" width="52.5" height="2" fill="black" transform="rotate(300, 487.5, 487.5) translate(877.5, 487.5)"/>
<rect x="0" y="0" width="52.5" height="2" fill="black" transform="rotate(330, 487.5, 487.5) translate(877.5, 487.5)"/>
<circle cx="487.5" cy="487.5" r="206.25" stroke="black" fill="none" stroke-width="2px"/>
<circle cx="487.5" cy="487.5" r="127.5" stroke="black" fill="none" stroke-width="2px"/>
<line x1="202.5" y1="486.5" x2="772.5" y2="488.5" stroke="blue" stroke-width="2"/>
<line x1="67.87985573365114" y1="522.5713589411293" x2="424.75462442347896" y2="809.3034097486982" stroke="blue" stroke-width="2"/>
<line x1="320.07135894112935" y1="418.62014426634886" x2="36.80340974869813" y2="913.2546244234788" stroke="blue" stroke-width="2"/>
<line x1="486.5" y1="202.50000000000003" x2="488.49999999999994" y2="772.5" stroke="blue" stroke-width="2"/>
<line x1="522.5713589411293" y1="67.87985573365106" x2="809.3034097486982" y2="424.7546244234791" stroke="blue" stroke-width="2"/>
<line x1="418.6201442663488" y1="320.0713589411294" x2="913.254624423479" y2="36.80340974869836" stroke="red" stroke-width="2"/>
<rect x="0" y="0" width="52.5" height="2" fill="black" transform="rotate(0, 487.5, 487.5)     translate(825.0, 487.5) "/>
<rect x="0" y="0" width="52.5" height="2" fill="black" transform="rotate(10, 487.5, 487.5)     translate(825.0, 487.5) "/>
<rect x="0" y="0" width="52.5" height="2" fill="black" transform="rotate(20, 487.5, 487.5)     translate(825.0, 487.5) "/>
<rect x="0" y="0" width="52.5" height="2" fill="black" transform="rotate(30, 487.5, 487.5)     translate(825.0, 487.5) "/>
<rect x="0" y="0" width="52.5" height="2" fill="black" transform="rotate(40, 487.5, 487.5)     translate(825.0, 487.5) "/>
<rect x="0" y="0" width="52.5" height="2" fill="black" transform="rotate(50, 487.5, 487.5)     translate(825.0, 487.5) "/>
<rect x="0" y="0" width="52.5" height="2" fill="black" transform="rotate(60, 487.5, 487.5)     translate(825.0, 487.5) "/>
<rect x="0" y="0" width="52.5" height="2" fill="black" transform="rotate(70, 487.5, 487.5)     translate(825.0, 487.5) "/>
<rect x="0" y="0" width="52.5" height="2" fill="black" transform="rotate(80, 487.5, 487.5)     translate(825.0, 487.5) "/>
<rect x="0" y="0" width="52.5" height="2" fill="black" transform="rotate(90, 487.5, 487.5)     translate(825.0, 487.5) "/>
<rect x="0" y="0" width="52.5" height="2" fill="black" transform="rotate(100, 487.5, 487.5)     translate(825.0, 487.5) "/>
<rect x="0" y="0" width="52.5" height="2" fill="black" transform="rotate(110, 487.5, 487.5)     translate(825.0, 487.5) "/>
<rect x="0" y="0" width="52.5" height="2" fill="black" transform="rotate(120, 487.5, 487.5)     translate(825.0, 487.5) "/>
<rect x="0" y="0" width="52.5" height="2" fill="black" transform="rotate(130, 487.5, 487.5)     translate(825.0, 487.5) "/>
<rect x="0" y="0" width="52.5" height="2" fill="black" transform="rotate(140, 487.5, 487.5)     translate(825.0, 487.5) "/>
<rect x="0" y="0" width="52.5" height="2" fill="black" transform="rotate(150, 487.5, 487.5)     translate(825.0, 487.5) "/>
<rect x="0" y="0" width="52.5" height="2" fill="black" transform="rotate(160, 487.5, 487.5)     translate(825.0, 487.5) "/>
<rect x="0" y="0" width="52.5" height="2" fill="black" transform="rotate(170, 487.5, 487.5)     translate(825.0, 487.5) "/>
<rect x="0" y="0" width="52.5" height="2" fill="black" transform="rotate(180, 487.5, 487.5)     translate(825.0, 487.5) "/>
<rect x="0" y="0" width="52.5" height="2" fill="black" transform="rotate(190, 487.5, 487.5)     translate(825.0, 487.5) "/>
<rect x="0" y="0" width="52.5" height="2" fill="black" transform="rotate(200, 487.5, 487.5)     translate(825.0, 487.5) "/>
<rect x="0" y="0" width="52.5" height="2" fill="black" transform="rotate(210, 487.5, 487.5)     translate(825.0, 487.5) "/>
<rect x="0" y="0" width="52.5" height="2" fill="black" transform="rotate(220, 487.5, 487.5)     translate(825.0, 487.5) "/>
<rect x="0" y="0" width="52.5" height="2" fill="black" transform="rotate(230, 487.5, 487.5)     translate(825.0, 487.5) "/>
<rect x="0" y="0" width="52.5" height="2" fill="black" transform="rotate(240, 487.5, 487.5)     translate(825.0, 487.5) "/>
<rect x="0" y="0" width="52.5" height="2" fill="black" transform="rotate(250, 487.5, 487.5)     translate(825.0, 487.5) "/>
<rect x="0" y="0" width="52.5" height="2" fill="black" transform="rotate(260, 487.5, 487.5)     translate(825.0, 487.5) "/>
<rect x="0" y="0" width="52.5" height="2" fill="black" transform="rotate(270, 487.5, 487.5)     translate(825.0, 487.5) "/>
<rect x="0" y="0" width="52.5" height="2" fill="black" transform="rotate(280, 487.5, 487.5)     translate(825.0, 487.5) "/>
<rect x="0" y="0" width="52.5" height="2" fill="black" transform="rotate(290, 487.5, 487.5)     translate(825.0, 487.5) "/>
<rect x="0" y="0" width="52.5" height="2" fill="black" transform="rotate(300, 487.5, 487.5)     translate(825.0, 487.5) "/>
<rect x="0" y="0" width="52.5" height="2" fill="black" transform="rotate(310, 487.5, 487.5)     translate(825.0, 487.5) "/>
<rect x="0" y="0" width="52.5" height="2" fill="black" transform="rotate(320, 487.5, 487.5)     translate(825.0, 487.5) "/>
<rect x="0" y="0" width="52.5" height="2" fill="black" transform="rotate(330, 487.5, 487.5)     translate(825.0, 487.5) "/>
<rect x="0" y="0" width="52.5" height="2" fill="black" transform="rotate(340, 487.5, 487.5)     translate(825.0, 487.5) "/>
<rect x="0" y="0" width="52.5" height="2" fill="black" transform="rotate(350, 487.5, 487.5)     translate(825.0, 487.5) "/>
<image x="0" y="0" width="42.07171314741036" height="40.0" href="Aries.svg" transform="translate(466.4641434262948, 51.25) rotate(345, 21.03585657370518, 436.25)"/>
<image x="0" y="0" width="40.0" height="40.0" href="Mars.svg" transform="translate(467.5, 103.75) rotate(355, 20.0, 383.75)"/>
<image x="0" y="0" width="40.0" height="40.0" href="Sun.svg" transform="translate(467.5, 103.75) rotate(345, 20.0, 383.75)"/>
<image x="0" y="0" width="38.0" height="38.0" href="Venus.svg" transform="translate(468.5, 104.75) rotate(335, 19.0, 382.75)"/>
<rect x="0" y="0" width="52.5" height="2" fill="black" transform="rotate(270, 487.5, 487.5) translate(772.5, 487.5) "/>
<rect x="0" y="0" width="52.5" height="2" fill="black" transform="rotate(264, 487.5, 487.5) translate(772.5, 487.5) "/>
<rect x="0" y="0" width="52.5" height="2" fill="black" transform="rotate(258, 487.5, 487.5) translate(772.5, 487.5) "/>
<rect x="0" y="0" width="52.5" height="2" fill="black" transform="rotate(250, 487.5, 487.5) translate(772.5, 487.5) "/>
<rect x="0" y="0" width="52.5" height="2" fill="black" transform="rotate(245, 487.5, 487.5) translate(772.5, 487.5) "/>
<rect x="0" y="0" width="52.5" height="2" fill="black" transform="rotate(240, 487.5, 487.5) translate(772.5, 487.5) "/>
<image x="0" y="0" width="50" height="30" href="Jupiter.svg" transform="translate(462.5, 161.25) rotate(357, 25.0, 326.25)"/>
<image x="0" y="0" width="28.499999999999996" height="28.5" href="Venus.svg" transform="translate(473.25, 162.0) rotate(351, 14.249999999999998, 325.5)"/>
<image x="0" y="0" width="30.0" height="30.0" href="Mercury.svg" transform="translate(472.5, 161.25) rotate(344, 15.0, 326.25)"/>
<image x="0" y="0" width="30.0" height="30.0" href="Mars.svg" transform="translate(472.5, 161.25) rotate(337.5, 15.0, 326.25)"/>
<image x="0" y="0" width="33.0" height="33.0" href="Saturn.svg" transform="translate(471.0, 159.75) rotate(332.5, 16.5, 327.75)"/>
<image x="0" y="0" width="38.24701195219123" height="40.0" href="Taurus.svg" transform="translate(469.3764940239044, 51.25) rotate(315, 19.123505976095615, 436.25)"/>
<image x="0" y="0" width="40.0" height="40.0" href="Mercury.svg" transform="translate(467.5, 103.75) rotate(325, 20.0, 383.75)"/>
<image x="0" y="0" width="32.0" height="32.0" href="Moon.svg" transform="translate(471.5, 107.75) rotate(315, 16.0, 379.75)"/>
<image x="0" y="0" width="43.99999999999999" height="44.0" href="Saturn.svg" transform="translate(465.5, 101.75) rotate(305, 21.999999999999996, 385.75)"/>
<rect x="0" y="0" width="52.5" height="2" fill="black" transform="rotate(240, 487.5, 487.5) translate(772.5, 487.5) "/>
<rect x="0" y="0" width="52.5" height="2" fill="black" transform="rotate(232, 487.5, 487.5) translate(772.5, 487.5) "/>
<rect x="0" y="0" width="52.5" height="2" fill="black" transform="rotate(226, 487.5, 487.5) translate(772.5, 487.5) "/>
<rect x="0" y="0" width="52.5" height="2" fill="black" transform="rotate(218, 487.5, 487.5) translate(772.5, 487.5) "/>
<rect x="0" y="0" width="52.5" height="2" fill="black" transform="rotate(213, 487.5, 487.5) translate(772.5, 487.5) "/>
<rect x="0" y="0" width="52.5" height="2" fill="black" transform="rotate(210, 487.5, 487.5) translate(772.5, 487.5) "/>
<image x="0" y="0" width="28.499999999999996" height="28.499999999999996" href="Venus.svg" transform="translate(473.25, 162.0) rotate(326, 14.249999999999998, 325.5)"/>
<image x="0" y="0" width="29.999999999999996" height="29.999999999999996" href="Mercury.svg" transform="translate(472.5, 161.25) rotate(319, 14.999999999999998, 326.25)"/>
<image x="0" y="0" width="29.999999999999996" height="29.999999999999996" href="Jupiter.svg" transform="translate(472.5, 161.25) rotate(312, 14.999999999999998, 326.25)"/>
<image x="0" y="0" width="29.999999999999996" height="29.999999999999996" href="Mars.svg" transform="translate(472.5, 161.25) rotate(305.5, 14.999999999999998, 326.25)"/>
<image x="0" y="0" width="33.0" height="33.0" href="Saturn.svg" transform="translate(471.0, 159.75) rotate(301.5, 16.5, 327.75)"/>
<image x="0" y="0" width="38.88446215139442" height="40.0" href="Gemini.svg" transform="translate(468.05776892430276, 51.25) rotate(285, 19.44223107569721, 436.25)"/>
<image x="0" y="0" width="40.0" height="40.0" href="Jupiter.svg" transform="translate(467.5, 103.75) rotate(295, 20.0, 383.75)"/>
<image x="0" y="0" width="40.0" height="40.0" href="Mars.svg" transform="translate(467.5, 103.75) rotate(285, 20.0, 383.75)"/>
<image x="0" y="0" width="40.0" height="40.0" href="Sun.svg" transform="translate(467.5, 103.75) rotate(275, 20.0, 383.75)"/>
<rect x="0" y="0" width="52.5" height="2" fill="black" transform="rotate(210, 487.5, 487.5) translate(772.5, 487.5) "/>
<rect x="0" y="0" width="52.5" height="2" fill="black" transform="rotate(204, 487.5, 487.5) translate(772.5, 487.5) "/>
<rect x="0" y="0" width="52.5" height="2" fill="black" transform="rotate(198, 487.5, 487.5) translate(772.5, 487.5) "/>
<rect x="0" y="0" width="52.5" height="2" fill="black" transform="rotate(193, 487.5, 487.5) translate(772.5, 487.5) "/>
<rect x="0" y="0" width="52.5" height="2" fill="black" transform="rotate(186, 487.5, 487.5) translate(772.5, 487.5) "/>
<rect x="0" y="0" width="52.5" height="2" fill="black" transform="rotate(180, 487.5, 487.5) translate(772.5, 487.5) "/>
<image x="0" y="0" width="29.999999999999996" height="29.999999999999996" href="Mercury.svg" transform="translate(472.5, 161.25) rotate(297, 14.999999999999998, 326.25)"/>
<image x="0" y="0" width="29.999999999999996" height="29.999999999999996" href="Jupiter.svg" transform="translate(472.5, 161.25) rotate(291, 14.999999999999998, 326.25)"/>
<image x="0" y="0" width="28.499999999999996" height="28.499999999999996" href="Venus.svg" transform="translate(473.25, 162.0) rotate(285.5, 14.249999999999998, 325.5)"/>
<image x="0" y="0" width="29.999999999999996" height="29.999999999999996" href="Mars.svg" transform="translate(472.5, 161.25) rotate(279.5, 14.999999999999998, 326.25)"/>
<image x="0" y="0" width="33.0" height="33.0" href="Saturn.svg" transform="translate(471.0, 159.75) rotate(273, 16.5, 327.75)"/>
<image x="0" y="0" width="51.06382978723404" height="40.0" href="Cancer.svg" transform="translate(461.968085106383, 51.25) rotate(255, 25.53191489361702, 436.25)"/>
<image x="0" y="0" width="38.0" height="38.0" href="Venus.svg" transform="translate(468.5, 104.75) rotate(265, 19.0, 382.75)"/>
<image x="0" y="0" width="40.0" height="40.0" href="Mercury.svg" transform="translate(467.5, 103.75) rotate(255, 20.0, 383.75)"/>
<image x="0" y="0" width="32.0" height="32.0" href="Moon.svg" transform="translate(471.5, 107.75) rotate(245, 16.0, 379.75)"/>
<rect x="0" y="0" width="52.5" height="2" fill="black" transform="rotate(180, 487.5, 487.5) translate(772.5, 487.5) "/>
<rect x="0" y="0" width="52.5" height="2" fill="black" transform="rotate(173, 487.5, 487.5) translate(772.5, 487.5) "/>
<rect x="0" y="0" width="52.5" height="2" fill="black" transform="rotate(167, 487.5, 487.5) translate(772.5, 487.5) "/>
<rect x="0" y="0" width="52.5" height="2" fill="black" transform="rotate(162, 487.5, 487.5) translate(772.5, 487.5) "/>
<rect x="0" y="0" width="52.5" height="2" fill="black" transform="rotate(154, 487.5, 487.5) translate(772.5, 487.5) "/>
<rect x="0" y="0" width="52.5" height="2" fill="black" transform="rotate(150, 487.5, 487.5) translate(772.5, 487.5) "/>
<image x="0" y="0" width="29.999999999999996" height="29.999999999999996" href="Mars.svg" transform="translate(472.5, 161.25) rotate(266.5, 14.999999999999998, 326.25)"/>
<image x="0" y="0" width="28.499999999999996" height="28.499999999999996" href="Venus.svg" transform="translate(473.25, 162.0) rotate(260, 14.249999999999998, 325.5)"/>
<image x="0" y="0" width="29.999999999999996" height="29.999999999999996" href="Mercury.svg" transform="translate(472.5, 161.25) rotate(254.5, 14.999999999999998, 326.25)"/>
<image x="0" y="0" width="29.999999999999996" height="29.999999999999996" href="Jupiter.svg" transform="translate(472.5, 161.25) rotate(248, 14.999999999999998, 326.25)"/>
<image x="0" y="0" width="33.0" height="33.0" href="Saturn.svg" transform="translate(471.0, 159.75) rotate(242, 16.5, 327.75)"/>
<image x="0" y="0" width="30.0" height="40.0" href="Leo.svg" transform="translate(472.5, 51.25) rotate(225, 15.0, 436.25)"/>
<image x="0" y="0" width="43.99999999999999" height="44.0" href="Saturn.svg" transform="translate(465.5, 101.75) rotate(235, 21.999999999999996, 385.75)"/>
<image x="0" y="0" width="40.0" height="40.0" href="Jupiter.svg" transform="translate(467.5, 103.75) rotate(225, 20.0, 383.75)"/>
<image x="0" y="0" width="40.0" height="40.0" href="Mars.svg" transform="translate(467.5, 103.75) rotate(215, 20.0, 383.75)"/>
<rect x="0" y="0" width="52.5" height="2" fill="black" transform="rotate(150, 487.5, 487.5) translate(772.5, 487.5) "/>
<rect x="0" y="0" width="52.5" height="2" fill="black" transform="rotate(144, 487.5, 487.5) translate(772.5, 487.5) "/>
<rect x="0" y="0" width="52.5" height="2" fill="black" transform="rotate(139, 487.5, 487.5) translate(772.5, 487.5) "/>
<rect x="0" y="0" width="52.5" height="2" fill="black" transform="rotate(132, 487.5, 487.5) translate(772.5, 487.5) "/>
<rect x="0" y="0" width="52.5" height="2" fill="black" transform="rotate(126, 487.5, 487.5) translate(772.5, 487.5) "/>
<rect x="0" y="0" width="52.5" height="2" fill="black" transform="rotate(120, 487.5, 487.5) translate(772.5, 487.5) "/>
<image x="0" y="0" width="29.999999999999996" height="29.999999999999996" href="Jupiter.svg" transform="translate(472.5, 161.25) rotate(237, 14.999999999999998, 326.25)"/>
<image x="0" y="0" width="28.499999999999996" height="28.499999999999996" href="Venus.svg" transform="translate(473.25, 162.0) rotate(231.5, 14.249999999999998, 325.5)"/>
<image x="0" y="0" width="33.0" height="33.0" href="Saturn.svg" transform="translate(471.0, 159.75) rotate(225.5, 16.5, 327.75)"/>
<image x="0" y="0" width="29.999999999999996" height="29.999999999999996" href="Mercury.svg" transform="translate(472.5, 161.25) rotate(219, 14.999999999999998, 326.25)"/>
<image x="0" y="0" width="29.999999999999996" height="29.999999999999996" href="Mars.svg" transform="translate(472.5, 161.25) rotate(213, 14.999999999999998, 326.25)"/>
<image x="0" y="0" width="32.98804780876494" height="40.0" href="Virgo.svg" transform="translate(471.00597609561754, 51.25) rotate(195, 16.49402390438247, 436.25)"/>
<image x="0" y="0" width="40.0" height="40.0" href="Sun.svg" transform="translate(467.5, 103.75) rotate(205, 20.0, 383.75)"/>
<image x="0" y="0" width="38.0" height="38.0" href="Venus.svg" transform="translate(468.5, 104.75) rotate(195, 19.0, 382.75)"/>
<image x="0" y="0" width="40.0" height="40.0" href="Mercury.svg" transform="translate(467.5, 103.75) rotate(185, 20.0, 383.75)"/>
<rect x="0" y="0" width="52.5" height="2" fill="black" transform="rotate(120, 487.5, 487.5) translate(772.5, 487.5) "/>
<rect x="0" y="0" width="52.5" height="2" fill="black" transform="rotate(113, 487.5, 487.5) translate(772.5, 487.5) "/>
<rect x="0" y="0" width="52.5" height="2" fill="black" transform="rotate(103, 487.5, 487.5) translate(772.5, 487.5) "/>
<rect x="0" y="0" width="52.5" height="2" fill="black" transform="rotate(99, 487.5, 487.5) translate(772.5, 487.5) "/>
<rect x="0" y="0" width="52.5" height="2" fill="black" transform="rotate(92, 487.5, 487.5) translate(772.5, 487.5) "/>
<rect x="0" y="0" width="52.5" height="2" fill="black" transform="rotate(90, 487.5, 487.5) translate(772.5, 487.5) "/>
<image x="0" y="0" width="29.999999999999996" height="29.999999999999996" href="Mercury.svg" transform="translate(472.5, 161.25) rotate(206.5, 14.999999999999998, 326.25)"/>
<image x="0" y="0" width="28.499999999999996" height="28.499999999999996" href="Venus.svg" transform="translate(473.25, 162.0) rotate(198, 14.249999999999998, 325.5)"/>
<image x="0" y="0" width="29.999999999999996" height="29.999999999999996" href="Jupiter.svg" transform="translate(472.5, 161.25) rotate(191, 14.999999999999998, 326.25)"/>
<image x="0" y="0" width="29.999999999999996" height="29.999999999999996" href="Mars.svg" transform="translate(472.5, 161.25) rotate(185.5, 14.999999999999998, 326.25)"/>
<image x="0" y="0" width="33.0" height="33.0" href="Saturn.svg" transform="translate(471.0, 159.75) rotate(181, 16.5, 327.75)"/>
<image x="0" y="0" width="36.33466135458167" height="40.0" href="Libra.svg" transform="translate(469.3326693227092, 51.25) rotate(165, 18.167330677290835, 436.25)"/>
<image x="0" y="0" width="32.0" height="32.0" href="Moon.svg" transform="translate(471.5, 107.75) rotate(175, 16.0, 379.75)"/>
<image x="0" y="0" width="43.99999999999999" height="44.0" href="Saturn.svg" transform="translate(465.5, 101.75) rotate(165, 21.999999999999996, 385.75)"/>
<image x="0" y="0" width="40.0" height="40.0" href="Jupiter.svg" transform="translate(467.5, 103.75) rotate(155, 20.0, 383.75)"/>
<rect x="0" y="0" width="52.5" height="2" fill="black" transform="rotate(90, 487.5, 487.5) translate(772.5, 487.5) "/>
<rect x="0" y="0" width="52.5" height="2" fill="black" transform="rotate(84, 487.5, 487.5) translate(772.5, 487.5) "/>
<rect x="0" y="0" width="52.5" height="2" fill="black" transform="rotate(76, 487.5, 487.5) translate(772.5, 487.5) "/>
<rect x="0" y="0" width="52.5" height="2" fill="black" transform="rotate(69, 487.5, 487.5) translate(772.5, 487.5) "/>
<rect x="0" y="0" width="52.5" height="2" fill="black" transform="rotate(62, 487.5, 487.5) translate(772.5, 487.5) "/>
<rect x="0" y="0" width="52.5" height="2" fill="black" transform="rotate(60, 487.5, 487.5) translate(772.5, 487.5) "/>
<image x="0" y="0" width="33.0" height="33.0" href="Saturn.svg" transform="translate(471.0, 159.75) rotate(177, 16.5, 327.75)"/>
<image x="0" y="0" width="29.999999999999996" height="29.999999999999996" href="Mercury.svg" transform="translate(472.5, 161.25) rotate(170, 14.999999999999998, 326.25)"/>
<image x="0" y="0" width="29.999999999999996" height="29.999999999999996" href="Jupiter.svg" transform="translate(472.5, 161.25) rotate(162.5, 14.999999999999998, 326.25)"/>
<image x="0" y="0" width="28.499999999999996" height="28.499999999999996" href="Venus.svg" transform="translate(473.25, 162.0) rotate(155.5, 14.249999999999998, 325.5)"/>
<image x="0" y="0" width="29.999999999999996" height="29.999999999999996" href="Mars.svg" transform="translate(472.5, 161.25) rotate(151, 14.999999999999998, 326.25)"/>
<image x="0" y="0" width="51.063829787" height="40.0" href="Scorpio.svg" transform="translate(461.9680851065, 51.25) rotate(135, 25.5319148935, 436.25)"/>
<image x="0" y="0" width="40.0" height="40.0" href="Mars.svg" transform="translate(467.5, 103.75) rotate(145, 20.0, 383.75)"/>
<image x="0" y="0" width="40.0" height="40.0" href="Sun.svg" transform="translate(467.5, 103.75) rotate(135, 20.0, 383.75)"/>
<image x="0" y="0" width="38.0" height="38.0" href="Venus.svg" transform="translate(468.5, 104.75) rotate(125, 19.0, 382.75)"/>
<rect x="0" y="0" width="52.5" height="2" fill="black" transform="rotate(60, 487.5, 487.5) translate(772.5, 487.5) "/>
<rect x="0" y="0" width="52.5" height="2" fill="black" transform="rotate(53, 487.5, 487.5) translate(772.5, 487.5) "/>
<rect x="0" y="0" width="52.5" height="2" fill="black" transform="rotate(49, 487.5, 487.5) translate(772.5, 487.5) "/>
<rect x="0" y="0" width="52.5" height="2" fill="black" transform="rotate(41, 487.5, 487.5) translate(772.5, 487.5) "/>
<rect x="0" y="0" width="52.5" height="2" fill="black" transform="rotate(36, 487.5, 487.5) translate(772.5, 487.5) "/>
<rect x="0" y="0" width="52.5" height="2" fill="black" transform="rotate(30, 487.5, 487.5) translate(772.5, 487.5) "/>
<image x="0" y="0" width="29.999999999999996" height="29.999999999999996" href="Mars.svg" transform="translate(472.5, 161.25) rotate(146.5, 14.999999999999998, 326.25)"/>
<image x="0" y="0" width="28.499999999999996" height="28.499999999999996" href="Venus.svg" transform="translate(473.25, 162.0) rotate(141.5, 14.249999999999998, 325.5)"/>
<image x="0" y="0" width="29.999999999999996" height="29.999999999999996" href="Mercury.svg" transform="translate(472.5, 161.25) rotate(135, 14.999999999999998, 326.25)"/>
<image x="0" y="0" width="29.999999999999996" height="29.999999999999996" href="Jupiter.svg" transform="translate(472.5, 161.25) rotate(128.5, 14.999999999999998, 326.25)"/>
<image x="0" y="0" width="33.0" height="33.0" href="Saturn.svg" transform="translate(471.0, 159.75) rotate(123, 16.5, 327.75)"/>
<image x="0" y="0" width="40.0" height="40.0" href="Sagittarius.svg" transform="translate(467.5, 51.25) rotate(105, 20.0, 436.25)"/>
<image x="0" y="0" width="40.0" height="40.0" href="Mercury.svg" transform="translate(467.5, 103.75) rotate(115, 20.0, 383.75)"/>
<image x="0" y="0" width="32.0" height="32.0" href="Moon.svg" transform="translate(471.5, 107.75) rotate(105, 16.0, 379.75)"/>
<image x="0" y="0" width="43.99999999999999" height="44.0" href="Saturn.svg" transform="translate(465.5, 101.75) rotate(95, 21.999999999999996, 385.75)"/>
<rect x="0" y="0" width="52.5" height="2" fill="black" transform="rotate(30, 487.5, 487.5) translate(772.5, 487.5) "/>
<rect x="0" y="0" width="52.5" height="2" fill="black" transform="rotate(18, 487.5, 487.5) translate(772.5, 487.5) "/>
<rect x="0" y="0" width="52.5" height="2" fill="black" transform="rotate(13, 487.5, 487.5) translate(772.5, 487.5) "/>
<rect x="0" y="0" width="52.5" height="2" fill="black" transform="rotate(9, 487.5, 487.5) translate(772.5, 487.5) "/>
<rect x="0" y="0" width="52.5" height="2" fill="black" transform="rotate(4, 487.5, 487.5) translate(772.5, 487.5) "/>
<rect x="0" y="0" width="52.5" height="2" fill="black" transform="rotate(0, 487.5, 487.5) translate(772.5, 487.5) "/>
<image x="0" y="0" width="29.999999999999996" height="29.999999999999996" href="Jupiter.svg" transform="translate(472.5, 161.25) rotate(114, 14.999999999999998, 326.25)"/>
<image x="0" y="0" width="28.499999999999996" height="28.499999999999996" href="Venus.svg" transform="translate(473.25, 162.0) rotate(105.5, 14.249999999999998, 325.5)"/>
<image x="0" y="0" width="29.999999999999996" height="29.999999999999996" href="Mercury.svg" transform="translate(472.5, 161.25) rotate(101, 14.999999999999998, 326.25)"/>
<image x="0" y="0" width="29.999999999999996" height="29.999999999999996" href="Mars.svg" transform="translate(472.5, 161.25) rotate(96.5, 14.999999999999998, 326.25)"/>
<image x="0" y="0" width="33.0" height="33.0" href="Saturn.svg" transform="translate(471.0, 159.75) rotate(92, 16.5, 327.75)"/>
<image x="0" y="0" width="41.91235059760956" height="40.0" href="Capricorn.svg" transform="translate(466.5438247011952, 51.25) rotate(75, 20.95617529880478, 436.25)"/>
<image x="0" y="0" width="40.0" height="40.0" href="Jupiter.svg" transform="translate(467.5, 103.75) rotate(85, 20.0, 383.75)"/>
<image x="0" y="0" width="40.0" height="40.0" href="Mars.svg" transform="translate(467.5, 103.75) rotate(75, 20.0, 383.75)"/>
<image x="0" y="0" width="40.0" height="40.0" href="Sun.svg" transform="translate(467.5, 103.75) rotate(65, 20.0, 383.75)"/>
<rect x="0" y="0" width="52.5" height="2" fill="black" transform="rotate(0, 487.5, 487.5) translate(772.5, 487.5) "/>
<rect x="0" y="0" width="52.5" height="2" fill="black" transform="rotate(-7, 487.5, 487.5) translate(772.5, 487.5) "/>
<rect x="0" y="0" width="52.5" height="2" fill="black" transform="rotate(-14, 487.5, 487.5) translate(772.5, 487.5) "/>
<rect x="0" y="0" width="52.5" height="2" fill="black" transform="rotate(-22, 487.5, 487.5) translate(772.5, 487.5) "/>
<rect x="0" y="0" width="52.5" height="2" fill="black" transform="rotate(-26, 487.5, 487.5) translate(772.5, 487.5) "/>
<rect x="0" y="0" width="52.5" height="2" fill="black" transform="rotate(-30, 487.5, 487.5) translate(772.5, 487.5) "/>
<image x="0" y="0" width="29.999999999999996" height="29.999999999999996" href="Mercury.svg" transform="translate(472.5, 161.25) rotate(87, 14.999999999999998, 326.25)"/>
<image x="0" y="0" width="29.999999999999996" height="29.999999999999996" href="Jupiter.svg" transform="translate(472.5, 161.25) rotate(79.5, 14.999999999999998, 326.25)"/>
<image x="0" y="0" width="28.499999999999996" height="28.499999999999996" href="Venus.svg" transform="translate(473.25, 162.0) rotate(72, 14.249999999999998, 325.5)"/>
<image x="0" y="0" width="33.0" height="33.0" href="Saturn.svg" transform="translate(471.0, 159.75) rotate(66, 16.5, 327.75)"/>
<image x="0" y="0" width="29.999999999999996" height="29.999999999999996" href="Mars.svg" transform="translate(472.5, 161.25) rotate(62, 14.999999999999998, 326.25)"/>
<image x="0" y="0" width="59.44223107569721" height="40.0" href="Aquarius.svg" transform="translate(457.7788844621514, 51.25) rotate(45, 29.721115537848604, 436.25)"/>
<image x="0" y="0" width="38.0" height="38.0" href="Venus.svg" transform="translate(468.5, 104.75) rotate(55, 19.0, 382.75)"/>
<image x="0" y="0" width="40.0" height="40.0" href="Mercury.svg" transform="translate(467.5, 103.75) rotate(45, 20.0, 383.75)"/>
<image x="0" y="0" width="32.0" height="32.0" href="Moon.svg" transform="translate(471.5, 107.75) rotate(35, 16.0, 379.75)"/>
<rect x="0" y="0" width="52.5" height="2" fill="black" transform="rotate(330, 487.5, 487.5) translate(772.5, 487.5) "/>
<rect x="0" y="0" width="52.5" height="2" fill="black" transform="rotate(323, 487.5, 487.5) translate(772.5, 487.5) "/>
<rect x="0" y="0" width="52.5" height="2" fill="black" transform="rotate(317, 487.5, 487.5) translate(772.5, 487.5) "/>
<rect x="0" y="0" width="52.5" height="2" fill="black" transform="rotate(310, 487.5, 487.5) translate(772.5, 487.5) "/>
<rect x="0" y="0" width="52.5" height="2" fill="black" transform="rotate(305, 487.5, 487.5) translate(772.5, 487.5) "/>
<rect x="0" y="0" width="52.5" height="2" fill="black" transform="rotate(300, 487.5, 487.5) translate(772.5, 487.5) "/>
<image x="0" y="0" width="29.999999999999996" height="29.999999999999996" href="Mercury.svg" transform="translate(472.5, 161.25) rotate(56.5, 14.999999999999998, 326.25)"/>
<image x="0" y="0" width="28.499999999999996" height="28.499999999999996" href="Venus.svg" transform="translate(473.25, 162.0) rotate(50, 14.249999999999998, 325.5)"/>
<image x="0" y="0" width="29.999999999999996" height="29.999999999999996" href="Jupiter.svg" transform="translate(472.5, 161.25) rotate(43.5, 14.999999999999998, 326.25)"/>
<image x="0" y="0" width="29.999999999999996" height="29.999999999999996" href="Mars.svg" transform="translate(472.5, 161.25) rotate(37.5, 14.999999999999998, 326.25)"/>
<image x="0" y="0" width="33.0" height="33.0" href="Saturn.svg" transform="translate(471.0, 159.75) rotate(32.5, 16.5, 327.75)"/>
<image x="0" y="0" width="32.191235059760956" height="40.0" href="Pisces.svg" transform="translate(471.4043824701195, 51.25) rotate(15, 16.095617529880478, 436.25)"/>
<image x="0" y="0" width="43.99999999999999" height="44.0" href="Saturn.svg" transform="translate(465.5, 101.75) rotate(25, 21.999999999999996, 385.75)"/>
<image x="0" y="0" width="40.0" height="40.0" href="Jupiter.svg" transform="translate(467.5, 103.75) rotate(15, 20.0, 383.75)"/>
<image x="0" y="0" width="40.0" height="40.0" href="Mars.svg" transform="translate(467.5, 103.75) rotate(5, 20.0, 383.75)"/>
<rect x="0" y="0" width="52.5" height="2" fill="black" transform="rotate(300, 487.5, 487.5) translate(772.5, 487.5) "/>
<rect x="0" y="0" width="52.5" height="2" fill="black" transform="rotate(288, 487.5, 487.5) translate(772.5, 487.5) "/>
<rect x="0" y="0" width="52.5" height="2" fill="black" transform="rotate(284, 487.5, 487.5) translate(772.5, 487.5) "/>
<rect x="0" y="0" width="52.5" height="2" fill="black" transform="rotate(281, 487.5, 487.5) translate(772.5, 487.5) "/>
<rect x="0" y="0" width="52.5" height="2" fill="black" transform="rotate(272, 487.5, 487.5) translate(772.5, 487.5) "/>
<rect x="0" y="0" width="52.5" height="2" fill="black" transform="rotate(270, 487.5, 487.5) translate(772.5, 487.5) "/>
<image x="0" y="0" width="28.499999999999996" height="28.499999999999996" href="Venus.svg" transform="translate(473.25, 162.0) rotate(24, 14.249999999999998, 325.5)"/>
<image x="0" y="0" width="29.999999999999996" height="29.999999999999996" href="Jupiter.svg" transform="translate(472.5, 161.25) rotate(16, 14.999999999999998, 326.25)"/>
<image x="0" y="0" width="29.999999999999996" height="29.999999999999996" href="Mercury.svg" transform="translate(472.5, 161.25) rotate(12.5, 14.999999999999998, 326.25)"/>
<image x="0" y="0" width="29.999999999999996" height="29.999999999999996" href="Mars.svg" transform="translate(472.5, 161.25) rotate(6.5, 14.999999999999998, 326.25)"/>
<image x="0" y="0" width="33.0" height="33.0" href="Saturn.svg" transform="translate(471.0, 159.75) rotate(1, 16.5, 327.75)"/>

</svg>