<?xml version="1.0" encoding="UTF-8" standalone="no"?>
<svg
   xml:space="preserve"
   width="151.5pt"
   height="188pt"
   style="shape-rendering:geometricPrecision; text-rendering:geometricPrecision; image-rendering:optimizeQuality; fill-rule:evenodd"
   viewBox="0 0 8268 11692"
   id="svg674"
   version="1.1"
   sodipodi:docname="Pisces.svg"
   inkscape:version="1.1 (c4e8f9ed74, 2021-05-24)"
   xmlns:inkscape="http://www.inkscape.org/namespaces/inkscape"
   xmlns:sodipodi="http://sodipodi.sourceforge.net/DTD/sodipodi-0.dtd"
   xmlns="http://www.w3.org/2000/svg"
   xmlns:svg="http://www.w3.org/2000/svg"><sodipodi:namedview
   id="namedview1288"
   pagecolor="#ffffff"
   bordercolor="#cccccc"
   borderopacity="1"
   inkscape:pageshadow="0"
   inkscape:pageopacity="1"
   inkscape:pagecheckerboard="0"
   inkscape:document-units="pt"
   showgrid="false"
   inkscape:zoom="3.4029255"
   inkscape:cx="8.0812818"
   inkscape:cy="125.33333"
   inkscape:window-width="1920"
   inkscape:window-height="1006"
   inkscape:window-x="0"
   inkscape:window-y="38"
   inkscape:window-maximized="1"
   inkscape:current-layer="svg674" /> <defs
   id="defs675"><style
     type="text/css"
     id="style676"><![CDATA[
    .fil0 {fill:#000000}
   ]]></style></defs><g
   id="Base"
   transform="matrix(5.548888,0,0,5.549122,-15669.98,-24593.71)"
   style="fill:#cfcfcf;fill-opacity:1"><path
     class="fil0"
     d="M3362 5518c0,165 -39,340 -115,524 -77,184 -179,350 -308,497l-219 0c295,-311 442,-651 442,-1021l-427 0 0 -150 427 0c-18,-322 -165,-634 -442,-936l207 0c254,271 399,583 435,936l414 0c37,-353 182,-665 435,-936l207 0c-277,302 -424,614 -442,936l427 0 0 150 -427 0c0,370 147,710 442,1021l-218 0c-130,-147 -232,-313 -309,-497 -76,-184 -115,-359 -115,-524l-414 0z"
     id="path678"
     style="fill:#cfcfcf;fill-opacity:1" /></g></svg>
