<?xml version="1.0" encoding="UTF-8" standalone="no"?>
<!-- Created with Sodipodi ("http://www.sodipodi.com/") -->

<svg
   xml:space="preserve"
   width="171pt"
   height="188pt"
   style="shape-rendering:geometricPrecision; text-rendering:geometricPrecision; image-rendering:optimizeQuality; fill-rule:evenodd"
   viewBox="0 0 8268 11692"
   id="svg650"
   sodipodi:version="0.34"
   sodipodi:docname="Scorpio.svg"
   version="1.1"
   inkscape:version="1.1 (c4e8f9ed74, 2021-05-24)"
   xmlns:inkscape="http://www.inkscape.org/namespaces/inkscape"
   xmlns:sodipodi="http://sodipodi.sourceforge.net/DTD/sodipodi-0.dtd"
   xmlns="http://www.w3.org/2000/svg"
   xmlns:svg="http://www.w3.org/2000/svg"><sodipodi:namedview
     id="base"
     pagecolor="#ffffff"
     bordercolor="#cccccc"
     borderopacity="1"
     inkscape:pageshadow="0"
     inkscape:pageopacity="1"
     inkscape:pagecheckerboard="0"
     inkscape:document-units="pt"
     showgrid="false"
     inkscape:zoom="3.4029255"
     inkscape:cx="21.011333"
     inkscape:cy="125.33333"
     inkscape:window-width="1920"
     inkscape:window-height="1006"
     inkscape:window-x="0"
     inkscape:window-y="38"
     inkscape:window-maximized="1"
     inkscape:current-layer="svg650" /><defs
     id="defs651"><style
       type="text/css"
       id="style652"><![CDATA[
    .fil0 {fill:#000000}
   ]]></style></defs><g
     id="Layer 1"
     transform="matrix(4.472138,0,0,4.481411,-13347.59,-19910.91)"
     style="fill:#cfcfcf;fill-opacity:1"><path
       class="fil0"
       d="M2889 6489l0 -1432c0,-238 -56,-431 -169,-575l216 0c76,116 127,247 154,395 64,-158 143,-289 236,-395l194 -39c91,106 148,258 173,455 49,-141 130,-280 242,-416l198 -39c108,146 162,319 162,519l0 1250c0,131 5,220 13,266 10,47 30,87 62,122 57,60 153,90 287,90l123 0 0 -201 318 287 -318 276 0 -195 -184 0c-176,0 -303,-46 -382,-138 -80,-93 -120,-240 -120,-443l0 -1209c0,-204 -29,-350 -88,-439 -150,173 -255,389 -313,649l0 1212 -201 0 0 -1351c0,-243 -29,-413 -88,-510 -144,162 -248,364 -314,604l0 1257 -201 0z"
       id="path654"
       style="fill:#cfcfcf;fill-opacity:1" /></g></svg>
