<?xml version="1.0" encoding="UTF-8" standalone="no"?>
<!-- Created with Inkscape (http://www.inkscape.org/) -->

<svg
   version="1.0"
   width="50"
   height="50"
   id="svg2"
   sodipodi:docname="sn.svg"
   inkscape:version="1.1 (c4e8f9ed74, 2021-05-24)"
   xmlns:inkscape="http://www.inkscape.org/namespaces/inkscape"
   xmlns:sodipodi="http://sodipodi.sourceforge.net/DTD/sodipodi-0.dtd"
   xmlns="http://www.w3.org/2000/svg"
   xmlns:svg="http://www.w3.org/2000/svg">
  <sodipodi:namedview
     id="namedview6"
     pagecolor="#ffffff"
     bordercolor="#666666"
     borderopacity="1.0"
     inkscape:pageshadow="2"
     inkscape:pageopacity="0.0"
     inkscape:pagecheckerboard="0"
     showgrid="false"
     inkscape:zoom="14.32"
     inkscape:cx="10.998603"
     inkscape:cy="25"
     inkscape:window-width="1920"
     inkscape:window-height="1006"
     inkscape:window-x="0"
     inkscape:window-y="38"
     inkscape:window-maximized="1"
     inkscape:current-layer="svg2" />
  <defs
     id="defs4" />
  <g
     id="layer1"
     style="fill:#cfcfcf;fill-opacity:1"
     transform="matrix(0.68298713,0,0,-0.68298713,7.8622844,42.791356)">
    <path
       d="M 21.176252,1.2059591 C 15.228025,2.7204431 9.9876165,7.0905621 8.0006675,12.977051 c -1.270502,2.788838 -1.325982,5.951178 -0.423179,8.850735 0.809138,3.646174 2.7757375,6.862792 5.0914795,9.746938 2.922444,4.571747 3.1053,12.154491 -0.956684,15.135285 -2.9732715,2.222485 -5.9687355,-0.305554 -6.3892265,-2.630483 -1.016303,-3.502128 1.80488,-8.380745 5.7431525,-8.38052 1.227942,0.332671 2.557777,0.474298 0.763265,-0.708362 -2.4617885,-1.683129 -6.0257475,-1.403454 -8.4590355,0.21978 -2.308112,1.560231 -3.23114905,4.543795 -2.54808705,7.194942 0.48226505,3.160916 2.86248805,5.787742 5.89896005,6.724102 2.989147,1.148872 6.6203405,0.985352 9.1932295,-0.912339 3.805311,-2.070804 5.162265,-7.056431 4.579361,-11.230009 -0.72549,-3.120551 -1.531851,-5.851676 -3.431725,-9.267252 C 13.874366,22.916047 11.614725,15.94564 14.417225,10.804622 16.06608,7.3630031 20.222278,4.3452381 24.61182,4.2941071 c 3.870131,-0.45133 7.354215,1.847255 9.581463,4.605399 1.955485,2.4373729 3.061668,6.1734259 2.827245,9.4166389 -0.145339,4.75029 -2.908629,9.487612 -5.270701,13.092949 -1.300132,2.547544 -1.519032,4.577038 -1.615679,7.463717 0.310487,3.875166 0.862454,7.574955 4.363675,9.439168 4.513089,2.620891 11.308991,1.352654 13.669412,-3.572674 1.722428,-3.472641 0.802967,-8.545376 -3.038532,-10.152143 -2.676307,-1.484103 -6.340748,-0.885667 -8.355758,1.434416 2.447998,0.06192 5.705737,-0.221195 6.777422,2.605881 1.484842,2.9305 1.4049,7.522624 -1.968586,9.103349 -2.80756,1.186904 -5.737009,-1.396954 -6.291885,-4.093295 -0.780997,-3.704096 -0.682449,-7.801122 1.196766,-11.178664 1.47942,-2.683021 3.841012,-4.814719 4.90415,-7.749248 2.368796,-5.322312 1.292812,-11.69427 -2.153369,-16.2948589 -3.226578,-4.709357 -8.832578,-7.549609 -14.530837,-7.409809 -1.179596,-0.012909 -2.359315,0.061018 -3.530354,0.201026 z"
       style="fill:#cfcfcf;fill-opacity:1;stroke:none;stroke-width:1px;stroke-linecap:butt;stroke-linejoin:miter;stroke-opacity:1"
       id="text2160" />
  </g>
</svg>
